<svg id="Layer_1" data-name="Layer 1" xmlns="http://www.w3.org/2000/svg" viewBox="0 0 56.38 49.04"><defs><style>.cls-1,.cls-2,.cls-3,.cls-4,.cls-5{fill:red;}.cls-1{opacity:0.7;}.cls-2{opacity:0.6;}.cls-4{opacity:0.5;}.cls-5{opacity:0.9;}</style></defs><title>red-diamond-3</title><polygon class="cls-1" points="10.77 0 0 15.14 19.48 15.14 10.77 0"/><polygon class="cls-2" points="28.19 0 10.77 0 19.48 15.14 28.19 0"/><polygon class="cls-3" points="0 15.14 28.19 49.04 19.48 15.14 0 15.14"/><polygon class="cls-1" points="56.38 15.14 45.61 0 45.61 0 36.9 15.14 56.38 15.14"/><polygon class="cls-4" points="28.19 0 28.19 0 19.48 15.14 28.19 15.14 36.9 15.14 28.19 0"/><polygon class="cls-2" points="45.61 0 28.19 0 36.9 15.14 45.61 0"/><polygon class="cls-5" points="28.19 15.14 19.48 15.14 28.19 49.04 28.19 49.04 36.9 15.14 28.19 15.14"/><polygon class="cls-3" points="36.9 15.14 28.19 49.04 56.38 15.14 36.9 15.14"/></svg>