<?xml version="1.0" encoding="utf-8"?>
<!-- Generator: Adobe Illustrator 16.0.0, SVG Export Plug-In . SVG Version: 6.00 Build 0)  -->
<!DOCTYPE svg PUBLIC "-//W3C//DTD SVG 1.1//EN" "http://www.w3.org/Graphics/SVG/1.1/DTD/svg11.dtd">
<svg version="1.1" id="Layer_1" xmlns="http://www.w3.org/2000/svg" xmlns:xlink="http://www.w3.org/1999/xlink" x="0px" y="0px"
	 width="78.582px" height="208.795px" viewBox="0 0 78.582 208.795" enable-background="new 0 0 78.582 208.795"
	 xml:space="preserve">
<path fill="#009444" d="M45.835,0.709c-0.325-0.399-0.671-0.77-0.999-1.166L16.265,22.806c14.347,19.425,22.842,43.44,22.842,69.445
	c0,34.547-14.98,65.588-38.792,87.009l23.677,29.078c0.207-0.164,0.421-0.318,0.628-0.482
	C87.678,156.514,97.175,63.766,45.835,0.709z"/>
<path fill="none" d="M-145.411-1.802C-91.559-40.471-16.53-28.168,22.146,25.694C60.809,79.535,48.518,154.561-5.336,193.236
	c-53.852,38.689-128.875,26.379-167.544-27.471C-211.577,111.904-199.275,36.885-145.411-1.802z"/>
<text transform="matrix(0.6094 -0.7929 0.7931 0.6091 31.0361 187.8398)" fill="#FFFFFF" font-family="'Roboto-Bold'" font-size="23.8629">O</text>
<text transform="matrix(0.5061 -0.8624 0.8621 0.5067 42.3613 172.7002)" fill="#FFFFFF" font-family="'Roboto-Bold'" font-size="23.8629">p</text>
<text transform="matrix(0.4091 -0.9125 0.9121 0.41 50.1289 159.2061)" fill="#FFFFFF" font-family="'Roboto-Bold'" font-size="23.8629">e</text>
<text transform="matrix(0.3082 -0.9513 0.9511 0.3089 56.1748 145.4746)" fill="#FFFFFF" font-family="'Roboto-Bold'" font-size="23.8629">n</text>
<text transform="matrix(0.2316 -0.9728 0.9727 0.232 60.5771 131.2012)" fill="#FFFFFF" font-family="'Roboto-Bold'" font-size="23.8629"> </text>
<text transform="matrix(0.1548 -0.9879 0.9879 0.1548 62.3906 123.9258)" fill="#FFFFFF" font-family="'Roboto-Bold'" font-size="23.8629">F</text>
<text transform="matrix(0.0464 -0.9989 0.999 0.0458 64.6406 108.8896)" fill="#FFFFFF" font-family="'Roboto-Bold'" font-size="23.8629">o</text>
<text transform="matrix(-0.045 -0.999 0.9989 -0.0459 65.1572 93.6245)" fill="#FFFFFF" font-family="'Roboto-Bold'" font-size="23.8629">r</text>
<text transform="matrix(-0.1053 -0.9944 0.9943 -0.1062 64.6348 83.7588)" fill="#FFFFFF" font-family="'Roboto-Bold'" font-size="23.8629"> </text>
<text transform="matrix(-0.2152 -0.9766 0.9765 -0.2157 64.0654 75.6079)" fill="#FFFFFF" font-family="'Roboto-Bold'" font-size="23.8629">W</text>
<text transform="matrix(-0.3523 -0.9359 0.9361 -0.3518 58.5215 52.6035)" fill="#FFFFFF" font-family="'Roboto-Bold'" font-size="23.8629">o</text>
<text transform="matrix(-0.437 -0.8995 0.8999 -0.4361 52.958 38.3711)" fill="#FFFFFF" font-family="'Roboto-Bold'" font-size="23.8629">r</text>
<text transform="matrix(-0.5149 -0.8572 0.8578 -0.514 48.4053 28.9722)" fill="#FFFFFF" font-family="'Roboto-Bold'" font-size="23.8629">k</text>
</svg>
