<?xml version="1.0" encoding="utf-8"?>
<!-- Generator: Adobe Illustrator 16.0.0, SVG Export Plug-In . SVG Version: 6.00 Build 0)  -->
<!DOCTYPE svg PUBLIC "-//W3C//DTD SVG 1.1//EN" "http://www.w3.org/Graphics/SVG/1.1/DTD/svg11.dtd">
<svg version="1.1" id="Layer_1" xmlns="http://www.w3.org/2000/svg" xmlns:xlink="http://www.w3.org/1999/xlink" x="0px" y="0px"
	 width="78.582px" height="208.795px" viewBox="0 0 78.582 208.795" enable-background="new 0 0 78.582 208.795"
	 xml:space="preserve">
<path fill="none" d="M-48.227-0.845C5.626-39.514,80.654-27.211,119.33,26.651c38.663,53.841,26.372,128.867-27.481,167.542
	c-53.852,38.689-128.875,26.379-167.544-27.471C-114.393,112.861-102.091,37.842-48.227-0.845z"/>
<text transform="matrix(0.6094 -0.7929 0.7931 0.6091 128.2207 188.7969)" fill="#FFFFFF" font-family="'Roboto-Bold'" font-size="23.8629">O</text>
<text transform="matrix(0.5061 -0.8624 0.8621 0.5067 139.5459 173.6572)" fill="#FFFFFF" font-family="'Roboto-Bold'" font-size="23.8629">p</text>
<text transform="matrix(0.4091 -0.9125 0.9121 0.41 147.3135 160.1631)" fill="#FFFFFF" font-family="'Roboto-Bold'" font-size="23.8629">e</text>
<text transform="matrix(0.3082 -0.9513 0.9511 0.3089 153.3594 146.4316)" fill="#FFFFFF" font-family="'Roboto-Bold'" font-size="23.8629">n</text>
<text transform="matrix(0.2316 -0.9728 0.9727 0.232 157.7617 132.1582)" fill="#FFFFFF" font-family="'Roboto-Bold'" font-size="23.8629"> </text>
<text transform="matrix(0.1548 -0.9879 0.9879 0.1548 159.5752 124.8828)" fill="#FFFFFF" font-family="'Roboto-Bold'" font-size="23.8629">F</text>
<text transform="matrix(0.0464 -0.9989 0.999 0.0458 161.8252 109.8467)" fill="#FFFFFF" font-family="'Roboto-Bold'" font-size="23.8629">o</text>
<text transform="matrix(-0.045 -0.999 0.9989 -0.0459 162.3418 94.5815)" fill="#FFFFFF" font-family="'Roboto-Bold'" font-size="23.8629">r</text>
<text transform="matrix(-0.1053 -0.9944 0.9943 -0.1062 161.8193 84.7158)" fill="#FFFFFF" font-family="'Roboto-Bold'" font-size="23.8629"> </text>
<text transform="matrix(-0.2152 -0.9766 0.9765 -0.2157 161.25 76.5649)" fill="#FFFFFF" font-family="'Roboto-Bold'" font-size="23.8629">W</text>
<text transform="matrix(-0.3523 -0.9359 0.9361 -0.3518 155.7061 53.5605)" fill="#FFFFFF" font-family="'Roboto-Bold'" font-size="23.8629">o</text>
<text transform="matrix(-0.437 -0.8995 0.8999 -0.4361 150.1426 39.3281)" fill="#FFFFFF" font-family="'Roboto-Bold'" font-size="23.8629">r</text>
<text transform="matrix(-0.5149 -0.8572 0.8578 -0.514 145.5898 29.9292)" fill="#FFFFFF" font-family="'Roboto-Bold'" font-size="23.8629">k</text>
<path fill="#009444" d="M46.02,1.666c-0.325-0.399-0.671-0.77-0.999-1.166L16.45,23.763c14.347,19.425,22.842,43.44,22.842,69.445
	c0,34.547-14.98,65.588-38.792,87.009l23.677,29.078c0.207-0.164,0.421-0.318,0.628-0.482C87.862,157.471,97.359,64.723,46.02,1.666
	z"/>
<g>
	<path fill="#FFFFFF" d="M34.214,171.613c1.028,0.79,1.845,1.638,2.448,2.542s0.996,1.825,1.176,2.762
		c0.182,0.938,0.154,1.874-0.08,2.811s-0.677,1.827-1.324,2.67c-0.649,0.845-1.396,1.5-2.24,1.969
		c-0.845,0.467-1.745,0.737-2.703,0.811c-0.957,0.072-1.953-0.063-2.986-0.406c-1.034-0.344-2.065-0.91-3.094-1.7l-0.592-0.454
		c-1.023-0.786-1.836-1.634-2.439-2.543c-0.604-0.91-0.999-1.837-1.184-2.782s-0.16-1.887,0.074-2.822
		c0.235-0.937,0.678-1.826,1.325-2.67c0.649-0.844,1.396-1.501,2.239-1.968c0.846-0.468,1.747-0.735,2.709-0.8
		c0.961-0.064,1.959,0.078,2.993,0.426c1.035,0.351,2.063,0.917,3.087,1.702L34.214,171.613z M31.445,173.954
		c-1.41-1.083-2.677-1.654-3.798-1.712c-1.121-0.059-2.042,0.38-2.761,1.316c-0.72,0.937-0.906,1.939-0.563,3.007
		c0.346,1.068,1.223,2.144,2.634,3.228l0.61,0.468c0.702,0.54,1.373,0.95,2.014,1.232c0.642,0.281,1.241,0.438,1.799,0.47
		c0.559,0.032,1.071-0.061,1.538-0.28c0.468-0.219,0.881-0.563,1.241-1.03c0.719-0.937,0.9-1.938,0.545-3.005
		s-1.238-2.142-2.649-3.225L31.445,173.954z"/>
	<path fill="#FFFFFF" d="M43.61,159.618c0.791,0.466,1.47,0.988,2.038,1.57s0.994,1.194,1.278,1.839
		c0.283,0.645,0.412,1.312,0.385,2.004c-0.028,0.69-0.241,1.378-0.643,2.062c-0.339,0.576-0.736,1.024-1.195,1.345
		c-0.458,0.321-0.962,0.535-1.513,0.645l5.123,3.012l-1.704,2.903l-15.048-8.843l1.58-2.693l1.124,0.524
		c-0.206-0.57-0.288-1.144-0.247-1.719c0.04-0.575,0.239-1.168,0.598-1.777c0.404-0.69,0.895-1.222,1.47-1.596
		c0.574-0.375,1.21-0.596,1.903-0.666c0.694-0.069,1.435,0.003,2.223,0.219c0.787,0.215,1.594,0.563,2.418,1.048L43.61,159.618z
		 M41.695,162.399c-0.448-0.264-0.889-0.47-1.318-0.619s-0.837-0.225-1.22-0.225c-0.383,0.001-0.732,0.086-1.049,0.256
		c-0.316,0.171-0.586,0.446-0.811,0.829c-0.278,0.476-0.419,0.917-0.42,1.326c-0.002,0.41,0.119,0.798,0.362,1.166l4.451,2.616
		c0.433,0.029,0.834-0.052,1.203-0.246c0.37-0.191,0.698-0.534,0.985-1.021c0.225-0.383,0.331-0.755,0.318-1.118
		c-0.012-0.363-0.116-0.712-0.311-1.047c-0.195-0.335-0.466-0.654-0.811-0.956s-0.735-0.581-1.171-0.837L41.695,162.399z"/>
	<path fill="#FFFFFF" d="M53.429,153.783c-0.399,0.895-0.903,1.629-1.51,2.203s-1.272,0.995-1.996,1.262s-1.481,0.377-2.275,0.331
		c-0.792-0.045-1.575-0.241-2.347-0.59l-0.414-0.185c-0.872-0.393-1.614-0.877-2.229-1.456c-0.613-0.577-1.078-1.217-1.394-1.916
		c-0.316-0.7-0.473-1.447-0.47-2.242s0.189-1.604,0.558-2.427c0.372-0.828,0.836-1.497,1.392-2.006
		c0.556-0.508,1.176-0.865,1.859-1.073c0.686-0.207,1.423-0.263,2.215-0.167c0.791,0.096,1.611,0.335,2.462,0.718l1.308,0.586
		l-3.285,7.326c0.398,0.119,0.783,0.171,1.156,0.156c0.373-0.017,0.721-0.095,1.043-0.234c0.323-0.14,0.616-0.342,0.88-0.607
		c0.263-0.265,0.483-0.597,0.662-0.992c0.251-0.56,0.378-1.125,0.382-1.693c0.004-0.569-0.138-1.122-0.424-1.66l2.367-0.75
		c0.179,0.302,0.33,0.647,0.455,1.036c0.124,0.386,0.199,0.812,0.226,1.275s-0.008,0.957-0.103,1.48
		C53.853,152.683,53.68,153.226,53.429,153.783z M43.835,149.893c-0.149,0.334-0.223,0.651-0.218,0.956
		c0.004,0.304,0.069,0.594,0.197,0.869c0.129,0.273,0.313,0.534,0.553,0.777c0.238,0.244,0.524,0.471,0.856,0.68l1.917-4.274
		l-0.245-0.11c-0.308-0.13-0.61-0.212-0.909-0.249c-0.299-0.036-0.581-0.014-0.848,0.067c-0.266,0.08-0.51,0.226-0.732,0.438
		C44.185,149.256,43.994,149.539,43.835,149.893z"/>
	<path fill="#FFFFFF" d="M45.723,138.357l1.417,0.35c-0.383-0.582-0.618-1.209-0.706-1.882c-0.088-0.674-0.017-1.371,0.216-2.087
		c0.185-0.569,0.432-1.061,0.741-1.475s0.699-0.729,1.169-0.942c0.47-0.216,1.025-0.319,1.668-0.311
		c0.644,0.009,1.388,0.15,2.237,0.426l7.625,2.478l-1.037,3.203l-7.646-2.483c-0.384-0.125-0.716-0.186-0.995-0.183
		c-0.278,0.005-0.518,0.063-0.718,0.178c-0.201,0.114-0.371,0.28-0.511,0.496c-0.139,0.216-0.259,0.479-0.359,0.79
		c-0.153,0.473-0.181,0.911-0.083,1.314s0.291,0.766,0.578,1.088l8.456,2.746l-1.038,3.204l-11.991-3.896L45.723,138.357z"/>
	<path fill="#FFFFFF" d="M57.54,112.229l-1.039,6.631l6.85,1.073l-0.542,3.454l-16.76-2.626l1.711-10.914l2.797,0.439l-1.17,7.458
		l4.329,0.679l1.039-6.63L57.54,112.229z"/>
	<path fill="#FFFFFF" d="M58.422,109.061c-0.916-0.044-1.759-0.217-2.529-0.518c-0.771-0.301-1.43-0.718-1.976-1.25
		c-0.546-0.531-0.964-1.176-1.254-1.933c-0.29-0.756-0.412-1.607-0.366-2.554c0.047-0.954,0.251-1.796,0.612-2.525
		c0.362-0.729,0.841-1.333,1.437-1.815c0.595-0.48,1.289-0.834,2.086-1.06c0.797-0.227,1.653-0.318,2.568-0.275l0.244,0.012
		c0.924,0.044,1.769,0.217,2.535,0.518c0.768,0.302,1.424,0.72,1.969,1.255c0.546,0.535,0.963,1.18,1.248,1.932
		c0.287,0.753,0.407,1.606,0.36,2.561c-0.046,0.954-0.248,1.795-0.605,2.521c-0.358,0.725-0.835,1.328-1.43,1.81
		c-0.596,0.48-1.289,0.834-2.081,1.061c-0.793,0.227-1.651,0.317-2.574,0.273L58.422,109.061z M58.829,105.709
		c0.513,0.024,0.995,0,1.45-0.071c0.454-0.071,0.852-0.202,1.191-0.392c0.34-0.19,0.614-0.445,0.824-0.765
		c0.211-0.321,0.327-0.722,0.35-1.203c0.022-0.465-0.055-0.868-0.232-1.207c-0.178-0.338-0.428-0.621-0.747-0.846
		s-0.702-0.396-1.147-0.511c-0.445-0.114-0.924-0.183-1.436-0.208l-0.245-0.012c-0.496-0.022-0.97,0.001-1.421,0.073
		c-0.45,0.072-0.85,0.204-1.197,0.397s-0.629,0.453-0.843,0.777c-0.214,0.324-0.333,0.722-0.355,1.195
		c-0.022,0.466,0.058,0.868,0.239,1.208c0.182,0.339,0.437,0.619,0.764,0.841c0.328,0.222,0.713,0.39,1.154,0.504
		c0.441,0.115,0.911,0.185,1.407,0.207L58.829,105.709z"/>
	<path fill="#FFFFFF" d="M55.546,86.917c-0.017,0.171-0.029,0.372-0.038,0.602c-0.01,0.23-0.011,0.434-0.004,0.612
		c0.029,0.66,0.162,1.188,0.401,1.586c0.238,0.398,0.571,0.685,0.999,0.86l8.241-0.361l0.145,3.363l-12.595,0.553l-0.137-3.178
		l1.498-0.16c-0.557-0.293-0.999-0.667-1.326-1.12c-0.326-0.452-0.503-0.989-0.529-1.609c-0.008-0.18,0-0.368,0.022-0.567
		c0.022-0.2,0.051-0.362,0.085-0.488L55.546,86.917z"/>
	<path fill="#FFFFFF" d="M56.365,63.487l-12.279,0.35l-0.743-3.404l17.376,0.05l0.751,3.438l-10.498,5.124l11.676,0.271l0.751,3.438
		l-15.77,7.304l-0.744-3.404l11.279-4.818L45.799,71.68l-0.632-2.892L56.365,63.487z"/>
	<path fill="#FFFFFF" d="M52.632,55.74c-0.859,0.319-1.703,0.49-2.53,0.515s-1.597-0.101-2.309-0.376
		c-0.71-0.274-1.348-0.704-1.912-1.285c-0.563-0.583-1.01-1.318-1.339-2.207c-0.333-0.896-0.475-1.75-0.429-2.562
		c0.047-0.813,0.25-1.557,0.608-2.232c0.358-0.675,0.86-1.273,1.504-1.793c0.645-0.519,1.396-0.939,2.255-1.256l0.229-0.086
		c0.867-0.32,1.713-0.492,2.536-0.516c0.824-0.023,1.593,0.104,2.305,0.383c0.713,0.279,1.349,0.708,1.907,1.289
		c0.559,0.581,1.004,1.317,1.336,2.213c0.332,0.896,0.476,1.748,0.432,2.556c-0.045,0.808-0.246,1.548-0.604,2.224
		c-0.359,0.675-0.858,1.272-1.499,1.791c-0.64,0.518-1.394,0.938-2.261,1.258L52.632,55.74z M51.691,52.498
		c0.48-0.178,0.916-0.389,1.307-0.633c0.39-0.244,0.704-0.52,0.942-0.827c0.237-0.308,0.391-0.65,0.458-1.028
		c0.066-0.377,0.018-0.791-0.15-1.242c-0.162-0.437-0.391-0.776-0.688-1.019c-0.297-0.243-0.637-0.405-1.019-0.486
		c-0.383-0.082-0.802-0.089-1.257-0.02c-0.454,0.069-0.923,0.192-1.403,0.371l-0.229,0.084c-0.466,0.173-0.892,0.38-1.278,0.623
		c-0.387,0.243-0.702,0.521-0.946,0.835c-0.245,0.314-0.401,0.662-0.471,1.044c-0.069,0.381-0.022,0.794,0.143,1.239
		c0.162,0.437,0.394,0.776,0.693,1.017c0.301,0.241,0.646,0.399,1.034,0.475c0.388,0.075,0.808,0.08,1.26,0.012
		c0.451-0.068,0.91-0.188,1.376-0.361L51.691,52.498z"/>
	<path fill="#FFFFFF" d="M41.285,36.504c0.054,0.164,0.121,0.354,0.202,0.569c0.081,0.215,0.161,0.402,0.238,0.564
		c0.286,0.596,0.616,1.029,0.992,1.301c0.376,0.271,0.796,0.406,1.258,0.4l7.442-3.56l1.456,3.036L41.5,44.254l-1.375-2.867
		l1.315-0.733c-0.628-0.052-1.181-0.222-1.659-0.51c-0.479-0.288-0.852-0.712-1.121-1.272c-0.077-0.161-0.145-0.337-0.202-0.529
		c-0.058-0.191-0.097-0.353-0.114-0.482L41.285,36.504z"/>
	<path fill="#FFFFFF" d="M41.57,28.072l1.662,0.425l3.308-1.961l1.72,2.896l-15.397,9.123l-1.72-2.895l8.531-5.054l-1.055-0.133
		l-4.906-0.845l-2.064-3.476l6.847,1.237l3.796-8.005l1.977,3.327L41.57,28.072z"/>
</g>
</svg>
