<?xml version="1.0" encoding="utf-8"?>
<!-- Generator: Adobe Illustrator 24.0.1, SVG Export Plug-In . SVG Version: 6.00 Build 0)  -->
<svg version="1.1" id="Layer_1" xmlns="http://www.w3.org/2000/svg" xmlns:xlink="http://www.w3.org/1999/xlink" x="0px" y="0px"
	 viewBox="0 0 219 219" style="enable-background:new 0 0 219 219;" xml:space="preserve">
<style type="text/css">
	.st0{opacity:0.8;}
	.st1{fill-rule:evenodd;clip-rule:evenodd;fill:#FFFFFF;}
</style>
<g class="st0">
	<path class="st1" d="M109.6,0c60-0.2,109.1,48.9,109.4,109.5c0.3,59.9-49.3,109.5-109.4,109.5C49.2,219,0,169.9,0,109.8
		C0,49.1,48.9,0.2,109.6,0z M85.6,129.8c-9.8-9.9-18.6-19.1-27.6-27.9c-7.6-7.5-17.8-7.5-24.9-0.3c-6.8,7-6.7,17.1,0.7,24.5
		c13,13.1,26.1,26.2,39.3,39.2c7.6,7.5,17.4,7.4,24.9-0.1c29-28.9,58-57.9,87-87c1.6-1.6,3.1-3.5,4.1-5.6c3.7-7.5,1.3-16.2-5.6-21.3
		c-6.9-5-15.7-4.3-22.3,2.2c-18.1,18-36.1,36-54.1,54.1C100.1,114.8,93.2,122,85.6,129.8z"/>
</g>
</svg>
