<?xml version="1.0" encoding="utf-8"?>
<!-- Generator: Adobe Illustrator 16.0.0, SVG Export Plug-In . SVG Version: 6.00 Build 0)  -->
<!DOCTYPE svg PUBLIC "-//W3C//DTD SVG 1.1//EN" "http://www.w3.org/Graphics/SVG/1.1/DTD/svg11.dtd">
<svg version="1.1" id="Layer_1" xmlns="http://www.w3.org/2000/svg" xmlns:xlink="http://www.w3.org/1999/xlink" x="0px" y="0px"
	 width="56.384px" height="49.041px" viewBox="0 0 56.384 49.041" enable-background="new 0 0 56.384 49.041" xml:space="preserve">
<g opacity="0.8">
	<g>
		<g>
			<polygon opacity="0.7" fill="#45CAFD" points="10.773,-0.048 0,15.095 19.482,15.095 			"/>
			<polygon opacity="0.6" fill="#45CAFD" points="28.191,-0.048 10.773,-0.048 19.482,15.095 			"/>
			<polygon fill="#45CAFD" points="0,15.095 28.191,48.993 19.482,15.095 			"/>
			<polygon opacity="0.7" fill="#45CAFD" points="56.384,15.095 45.61,-0.048 45.608,-0.048 36.901,15.095 			"/>
			<polygon opacity="0.5" fill="#45CAFD" points="28.192,-0.048 28.191,-0.048 19.482,15.095 28.191,15.095 36.901,15.095 			"/>
			<polygon opacity="0.6" fill="#45CAFD" points="45.608,-0.048 28.192,-0.048 36.901,15.095 			"/>
			<polygon opacity="0.9" fill="#45CAFD" points="28.191,15.095 19.482,15.095 28.191,48.993 28.192,48.991 36.901,15.095 			"/>
			<polygon fill="#45CAFD" points="36.901,15.095 28.192,48.991 56.384,15.095 			"/>
		</g>
	</g>
</g>
</svg>
