<?xml version="1.0" encoding="utf-8"?>
<!-- Generator: Adobe Illustrator 16.0.0, SVG Export Plug-In . SVG Version: 6.00 Build 0)  -->
<!DOCTYPE svg PUBLIC "-//W3C//DTD SVG 1.1//EN" "http://www.w3.org/Graphics/SVG/1.1/DTD/svg11.dtd">
<svg version="1.1" id="Layer_1" xmlns="http://www.w3.org/2000/svg" xmlns:xlink="http://www.w3.org/1999/xlink" x="0px" y="0px"
	 width="56.384px" height="49.041px" viewBox="0 0 56.384 49.041" enable-background="new 0 0 56.384 49.041" xml:space="preserve">
<g opacity="0.4">
	<g>
		<g>
			<polygon opacity="0.7" fill="#45CAFD" points="10.879,-0.007 0.105,15.136 19.588,15.136 			"/>
			<polygon opacity="0.6" fill="#45CAFD" points="28.297,-0.007 10.879,-0.007 19.588,15.136 			"/>
			<polygon fill="#45CAFD" points="0.105,15.136 28.297,49.034 19.588,15.136 			"/>
			<polygon opacity="0.7" fill="#45CAFD" points="56.489,15.136 45.716,-0.007 45.714,-0.007 37.007,15.136 			"/>
			<polygon opacity="0.5" fill="#45CAFD" points="28.298,-0.007 28.297,-0.007 19.588,15.136 28.297,15.136 37.007,15.136 			"/>
			<polygon opacity="0.6" fill="#45CAFD" points="45.714,-0.007 28.298,-0.007 37.007,15.136 			"/>
			<polygon opacity="0.9" fill="#45CAFD" points="28.297,15.136 19.588,15.136 28.297,49.034 28.298,49.032 37.007,15.136 			"/>
			<polygon fill="#45CAFD" points="37.007,15.136 28.298,49.032 56.489,15.136 			"/>
		</g>
	</g>
</g>
</svg>
