<?xml version="1.0" encoding="utf-8"?>
<!-- Generator: Adobe Illustrator 16.0.0, SVG Export Plug-In . SVG Version: 6.00 Build 0)  -->
<!DOCTYPE svg PUBLIC "-//W3C//DTD SVG 1.1//EN" "http://www.w3.org/Graphics/SVG/1.1/DTD/svg11.dtd">
<svg version="1.1" id="Layer_1" xmlns="http://www.w3.org/2000/svg" xmlns:xlink="http://www.w3.org/1999/xlink" x="0px" y="0px"
	 width="56.384px" height="49.041px" viewBox="0 0 56.384 49.041" enable-background="new 0 0 56.384 49.041" xml:space="preserve">
<g opacity="0.2">
	<g>
		<g>
			<polygon opacity="0.7" fill="#45CAFD" points="10.774,-0.531 0,14.611 19.483,14.611 			"/>
			<polygon opacity="0.6" fill="#45CAFD" points="28.192,-0.531 10.774,-0.531 19.483,14.611 			"/>
			<polygon fill="#45CAFD" points="0,14.611 28.192,48.51 19.483,14.611 			"/>
			<polygon opacity="0.7" fill="#45CAFD" points="56.384,14.611 45.61,-0.531 45.608,-0.531 36.901,14.611 			"/>
			<polygon opacity="0.5" fill="#45CAFD" points="28.192,-0.531 28.192,-0.531 19.483,14.611 28.192,14.611 36.901,14.611 			"/>
			<polygon opacity="0.6" fill="#45CAFD" points="45.608,-0.531 28.192,-0.531 36.901,14.611 			"/>
			<polygon opacity="0.9" fill="#45CAFD" points="28.192,14.611 19.483,14.611 28.192,48.51 28.192,48.508 36.901,14.611 			"/>
			<polygon fill="#45CAFD" points="36.901,14.611 28.192,48.508 56.384,14.611 			"/>
		</g>
	</g>
</g>
</svg>
