<?xml version="1.0" standalone="no"?>
<!DOCTYPE svg PUBLIC "-//W3C//DTD SVG 20010904//EN"
 "http://www.w3.org/TR/2001/REC-SVG-20010904/DTD/svg10.dtd">
<svg version="1.0" xmlns="http://www.w3.org/2000/svg"
 width="258.000000pt" height="220.000000pt" viewBox="0 0 258.000000 220.000000"
 preserveAspectRatio="xMidYMid meet">

<g transform="translate(0.000000,220.000000) scale(0.100000,-0.100000)"
fill="#000000" stroke="none">
<path d="M1212 2055 c-18 -8 -107 -76 -198 -152 -91 -76 -182 -151 -202 -168
-33 -27 -218 -181 -342 -284 -477 -398 -440 -364 -440 -393 0 -22 89 -134 119
-148 29 -13 33 -11 177 110 115 96 153 128 379 315 77 64 149 124 160 133 132
112 336 282 390 326 23 19 23 18 82 -28 72 -58 116 -94 273 -226 69 -58 134
-112 144 -120 11 -8 38 -31 60 -51 36 -31 317 -265 356 -296 8 -7 59 -49 112
-94 78 -64 103 -80 121 -75 29 7 127 130 127 159 0 16 -46 60 -180 171 l-180
150 0 333 0 333 -22 5 c-13 3 -97 4 -188 3 l-165 -3 -3 -167 c-2 -110 -6 -168
-13 -168 -6 0 -32 17 -57 38 -66 53 -294 244 -312 261 -25 24 -93 51 -130 50
-19 0 -50 -6 -68 -14z"/>
<path d="M1252 1637 c-34 -25 -98 -77 -187 -153 -52 -44 -117 -97 -309 -254
-24 -19 -116 -95 -205 -169 l-162 -133 3 -403 3 -403 24 -21 c23 -20 34 -21
342 -21 l319 0 2 298 3 297 194 3 c149 2 196 -1 203 -10 4 -7 8 -143 8 -303
l0 -290 321 5 321 5 19 24 c18 22 19 44 19 421 l0 397 -161 134 c-89 74 -182
151 -208 173 -69 57 -79 66 -166 136 -44 36 -93 77 -110 91 -16 15 -49 42 -72
60 -24 19 -72 57 -107 86 l-64 52 -30 -22z"/>
</g>
</svg>
