<?xml version="1.0" encoding="utf-8"?>
<!-- Generator: Adobe Illustrator 24.0.1, SVG Export Plug-In . SVG Version: 6.00 Build 0)  -->
<svg version="1.1" id="Layer_1" xmlns="http://www.w3.org/2000/svg" xmlns:xlink="http://www.w3.org/1999/xlink" x="0px" y="0px"
	 viewBox="0 0 34.9 99.2" style="enable-background:new 0 0 34.9 99.2;" xml:space="preserve">
<style type="text/css">
	.st0{fill:#009444;}
	.st1{fill:none;}
	.st2{fill:#FFFFFF;}
	.st3{font-family:'Roboto-Regular';}
	.st4{font-size:12.1439px;}
	.st5{font-size:12.1435px;}
	.st6{font-size:12.1445px;}
	.st7{font-size:12.1443px;}
	.st8{font-size:12.1433px;}
</style>
<text transform="matrix(0.2316 -0.9728 0.9727 0.232 -104.6383 29.9342)" class="st2 st3" style="font-size:8.6225px;"> </text>
<text transform="matrix(-0.1053 -0.9944 0.9943 -0.1062 -103.1715 12.7919)" class="st2 st3" style="font-size:8.6218px;"> </text>
<path class="st0" d="M98.3,257.3"/>
<path class="st0" d="M0,13.9c0.1,0.1,0.2,0.1,0.2,0.2c19.5,19.5,19.5,51.2,0,70.7C0.2,84.9,0.1,85,0,85.1l14.1,14.1
	c0.1-0.1,0.2-0.2,0.2-0.2c27.3-27.3,27.3-71.7,0-99c-0.1-0.1-0.2-0.2-0.2-0.2L0,13.9z"/>
<path class="st1" d="M-57.5,8.4C-34-6.2-3.2,0.9,11.4,24.3c14.6,23.4,7.4,54.3-16,68.9c-23.4,14.6-54.3,7.4-68.9-16
	C-88.1,53.8-80.9,23-57.5,8.4z"/>
<text transform="matrix(0.6479 -0.7617 0.7617 0.6479 12.274 93.1103)" class="st2 st3 st4">O</text>
<text transform="matrix(0.5239 -0.8518 0.8518 0.5239 18.6089 85.3778)" class="st2 st3 st4">p</text>
<text transform="matrix(0.4057 -0.914 0.914 0.4057 22.8238 78.3327)" class="st2 st3 st4">e</text>
<text transform="matrix(0.2809 -0.9597 0.9597 0.2809 25.9741 71.0317)" class="st2 st3 st5">n</text>
<text transform="matrix(0.186 -0.9825 0.9826 0.186 28.0306 63.4927)" class="st2 st3 st6"> </text>
<text transform="matrix(9.070000e-02 -0.9959 0.9959 9.070000e-02 28.8179 59.5384)" class="st2 st3 st4">F</text>
<text transform="matrix(-4.450000e-02 -0.999 0.999 -4.450000e-02 29.4635 51.4843)" class="st2 st3 st4">o</text>
<text transform="matrix(-0.1572 -0.9875 0.9876 -0.1572 28.9703 43.4571)" class="st2 st3 st7">r</text>
<text transform="matrix(-0.2304 -0.9731 0.9731 -0.2304 28.1022 38.3482)" class="st2 st3 st4"> </text>
<text transform="matrix(-0.3618 -0.9322 0.9322 -0.3618 27.2231 33.9352)" class="st2 st3 st8">W</text>
<text transform="matrix(-0.515 -0.8572 0.8572 -0.515 22.4245 22.4917)" class="st2 st3 st4">o</text>
<text transform="matrix(-0.61 -0.7924 0.7924 -0.61 18.146 15.6576)" class="st2 st3 st4">r</text>
<text transform="matrix(-0.6928 -0.7211 0.7211 -0.6928 14.7455 11.25)" class="st2 st3 st4">k</text>
</svg>
