<?xml version="1.0" encoding="utf-8"?>
<!-- Generator: Adobe Illustrator 24.0.1, SVG Export Plug-In . SVG Version: 6.00 Build 0)  -->
<svg version="1.1" id="Layer_1" xmlns="http://www.w3.org/2000/svg" xmlns:xlink="http://www.w3.org/1999/xlink" x="0px" y="0px"
	 viewBox="0 0 174.9 58.5" style="enable-background:new 0 0 174.9 58.5;" xml:space="preserve">
<style type="text/css">
	.st0{filter:url(#Adobe_OpacityMaskFilter);}
	.st1{fill:url(#SVGID_1_);}
	.st2{opacity:0.4;mask:url(#SVGID_2_);}
	.st3{fill:#58595B;}
	.st4{fill:#939598;}
	.st5{opacity:0.3;}
	.st6{fill:url(#SVGID_3_);}
	.st7{fill:#FFFFFF;}
</style>
<g>
	<g>
		<defs>
			<filter id="Adobe_OpacityMaskFilter" filterUnits="userSpaceOnUse" x="160.9" y="48.5" width="14" height="10">
				<feColorMatrix  type="matrix" values="1 0 0 0 0  0 1 0 0 0  0 0 1 0 0  0 0 0 1 0"/>
			</filter>
		</defs>
		<mask maskUnits="userSpaceOnUse" x="160.9" y="48.5" width="14" height="10" id="SVGID_2_">
			<g class="st0">
				
					<linearGradient id="SVGID_1_" gradientUnits="userSpaceOnUse" x1="158.109" y1="14.8236" x2="176.475" y2="14.8236" gradientTransform="matrix(1 0 0 -1 0 67.9962)">
					<stop  offset="0.2894" style="stop-color:#FFFFFF"/>
					<stop  offset="0.405" style="stop-color:#FCFCFC"/>
					<stop  offset="0.4779" style="stop-color:#F4F4F4"/>
					<stop  offset="0.539" style="stop-color:#E5E5E5"/>
					<stop  offset="0.5936" style="stop-color:#D0D0D0"/>
					<stop  offset="0.6439" style="stop-color:#B5B5B5"/>
					<stop  offset="0.6911" style="stop-color:#949494"/>
					<stop  offset="0.7357" style="stop-color:#6D6D6D"/>
					<stop  offset="0.7784" style="stop-color:#3F3F3F"/>
					<stop  offset="0.8181" style="stop-color:#0D0D0D"/>
					<stop  offset="0.8277" style="stop-color:#000000"/>
				</linearGradient>
				<rect x="158.1" y="46.5" class="st1" width="18.4" height="13.4"/>
			</g>
		</mask>
		<g class="st2">
			<g>
			</g>
		</g>
		<path class="st3" d="M161,55.8h7.9c2.9,0,5.2-2.3,5.2-5.2v-5H161V55.8z"/>
		<path class="st4" d="M161,55.2h7.9c2.6,0,4.5-2.3,4.5-5.2v-5H161V55.2z"/>
		<g class="st5">
		</g>
		<g>
			
				<linearGradient id="SVGID_3_" gradientUnits="userSpaceOnUse" x1="1.4461" y1="31.5542" x2="174.3019" y2="51.9364" gradientTransform="matrix(1 0 0 -1 0 67.9962)">
				<stop  offset="0" style="stop-color:#F8F8F8"/>
				<stop  offset="0.2512" style="stop-color:#DEDEDE"/>
				<stop  offset="0.3484" style="stop-color:#D7D7D7"/>
				<stop  offset="0.4901" style="stop-color:#C4C4C4"/>
				<stop  offset="0.6583" style="stop-color:#A4A4A4"/>
				<stop  offset="0.7211" style="stop-color:#969696"/>
				<stop  offset="0.8262" style="stop-color:#717171"/>
				<stop  offset="0.9248" style="stop-color:#555555"/>
				<stop  offset="0.9816" style="stop-color:#4A4A4A"/>
			</linearGradient>
			<path class="st6" d="M169.6,0H22.8C10.2,0,0,10.2,0,22.8c0,12.6,10.2,22.8,22.8,22.8h146.8c0,0,4.5,0.2,4.5,4.5
				c0-3.7,0-41.5,0-45.6C174.1-0.1,169.6,0,169.6,0z"/>
		</g>
	</g>
	<g>
		<path class="st7" d="M59.9,35.4c-1-1.1-1.5-2.7-1.5-4.8v-1.5h3.8v1.8c0,1.7,0.7,2.5,2.1,2.5c0.7,0,1.2-0.2,1.6-0.6
			c0.4-0.4,0.5-1.1,0.5-2c0-1.1-0.2-2-0.7-2.9c-0.5-0.8-1.4-1.8-2.7-3c-1.7-1.5-2.8-2.8-3.5-4c-0.7-1.2-1-2.5-1-4
			c0-2,0.5-3.6,1.5-4.7c1-1.1,2.5-1.7,4.5-1.7c1.9,0,3.4,0.6,4.4,1.7c1,1.1,1.5,2.7,1.5,4.8v1.1h-3.8v-1.3c0-0.9-0.2-1.5-0.5-1.9
			c-0.3-0.4-0.8-0.6-1.5-0.6c-1.4,0-2,0.8-2,2.5c0,0.9,0.3,1.8,0.8,2.6c0.5,0.8,1.4,1.8,2.7,2.9c1.7,1.5,2.9,2.8,3.5,4
			c0.6,1.2,1,2.6,1,4.2c0,2.1-0.5,3.7-1.6,4.9c-1,1.1-2.6,1.7-4.6,1.7C62.4,37.1,60.9,36.5,59.9,35.4z"/>
		<path class="st7" d="M72.8,10.9h6c2,0,3.5,0.5,4.5,1.6s1.5,2.7,1.5,4.8v2.5c0,2.1-0.5,3.7-1.5,4.8c-1,1.1-2.5,1.6-4.5,1.6h-1.9
			v10.5h-4.1V10.9z M78.8,22.5c0.7,0,1.2-0.2,1.5-0.6c0.3-0.4,0.5-1,0.5-1.9V17c0-0.9-0.2-1.5-0.5-1.9s-0.8-0.6-1.5-0.6h-1.9v7.9
			L78.8,22.5L78.8,22.5z"/>
		<path class="st7" d="M88.3,35.4c-1.1-1.1-1.6-2.7-1.6-4.8V17c0-2.1,0.5-3.7,1.6-4.8c1.1-1.1,2.6-1.7,4.6-1.7s3.5,0.6,4.6,1.7
			C98.5,13.4,99,15,99,17v13.6c0,2.1-0.5,3.7-1.6,4.8c-1.1,1.1-2.6,1.7-4.6,1.7S89.4,36.5,88.3,35.4z M95,30.8V16.8
			c0-1.7-0.7-2.5-2.1-2.5c-1.4,0-2.1,0.8-2.1,2.5v14.1c0,1.7,0.7,2.5,2.1,2.5C94.3,33.4,95,32.5,95,30.8z"/>
		<path class="st7" d="M101.8,10.9h5.1l3.9,15.4h0.1V10.9h3.6v25.8h-4.2l-4.9-18.8h-0.1v18.8h-3.6V10.9z"/>
		<path class="st7" d="M118.3,35.4c-1-1.1-1.5-2.7-1.5-4.8v-1.5h3.8v1.8c0,1.7,0.7,2.5,2.1,2.5c0.7,0,1.2-0.2,1.6-0.6
			c0.4-0.4,0.5-1.1,0.5-2c0-1.1-0.2-2-0.7-2.9c-0.5-0.8-1.4-1.8-2.7-3c-1.7-1.5-2.8-2.8-3.5-4c-0.7-1.2-1-2.5-1-4
			c0-2,0.5-3.6,1.5-4.7c1-1.1,2.5-1.7,4.5-1.7c1.9,0,3.4,0.6,4.4,1.7c1,1.1,1.5,2.7,1.5,4.8v1.1H125v-1.3c0-0.9-0.2-1.5-0.5-1.9
			c-0.3-0.4-0.8-0.6-1.5-0.6c-1.4,0-2,0.8-2,2.5c0,0.9,0.3,1.8,0.8,2.6c0.5,0.8,1.4,1.8,2.7,2.9c1.7,1.5,2.9,2.8,3.5,4
			c0.6,1.2,1,2.6,1,4.2c0,2.1-0.5,3.7-1.6,4.9c-1,1.1-2.6,1.7-4.6,1.7C120.8,37.1,119.3,36.5,118.3,35.4z"/>
		<path class="st7" d="M132.5,35.4c-1.1-1.1-1.6-2.7-1.6-4.8V17c0-2.1,0.5-3.7,1.6-4.8c1.1-1.1,2.6-1.7,4.6-1.7c2,0,3.5,0.6,4.6,1.7
			c1.1,1.1,1.6,2.7,1.6,4.8v13.6c0,2.1-0.5,3.7-1.6,4.8c-1.1,1.1-2.6,1.7-4.6,1.7S133.5,36.5,132.5,35.4z M139.1,30.8V16.8
			c0-1.7-0.7-2.5-2.1-2.5c-1.4,0-2.1,0.8-2.1,2.5v14.1c0,1.7,0.7,2.5,2.1,2.5C138.4,33.4,139.1,32.5,139.1,30.8z"/>
		<path class="st7" d="M145.9,10.9h6c2.1,0,3.6,0.5,4.6,1.5c1,1,1.4,2.5,1.4,4.5v1.6c0,2.7-0.9,4.4-2.7,5.1v0.1
			c1,0.3,1.7,0.9,2.1,1.8s0.6,2.1,0.6,3.6v4.5c0,0.7,0,1.3,0.1,1.8c0,0.5,0.2,0.9,0.4,1.3h-4.1c-0.1-0.4-0.2-0.8-0.3-1.2
			c-0.1-0.4-0.1-1-0.1-2v-4.7c0-1.2-0.2-2-0.6-2.5s-1-0.7-2-0.7H150v11.1h-4.1V10.9z M151.5,22c0.8,0,1.4-0.2,1.8-0.6
			c0.4-0.4,0.6-1.1,0.6-2.1v-2c0-0.9-0.2-1.6-0.5-2s-0.9-0.6-1.6-0.6H150V22H151.5z"/>
	</g>
</g>
</svg>
