<?xml version="1.0" encoding="utf-8"?>
<!-- Generator: Adobe Illustrator 24.0.1, SVG Export Plug-In . SVG Version: 6.00 Build 0)  -->
<svg version="1.1" id="Layer_1" xmlns="http://www.w3.org/2000/svg" xmlns:xlink="http://www.w3.org/1999/xlink" x="0px" y="0px"
	 viewBox="0 0 174.9 58.9" style="enable-background:new 0 0 174.9 58.9;" xml:space="preserve">
<style type="text/css">
	.st0{filter:url(#Adobe_OpacityMaskFilter);}
	.st1{fill:url(#SVGID_1_);}
	.st2{opacity:0.4;mask:url(#SVGID_2_);}
	.st3{fill:#876503;}
	.st4{fill:url(#SVGID_5_);}
	.st5{opacity:0.3;}
	.st6{fill:url(#SVGID_7_);}
	.st7{filter:url(#Adobe_OpacityMaskFilter_1_);}
	.st8{fill:url(#SVGID_8_);}
	.st9{opacity:0.4;mask:url(#SVGID_3_);}
	.st10{fill:#58595B;}
	.st11{fill:#939598;}
	.st12{fill:url(#SVGID_9_);}
	.st13{filter:url(#Adobe_OpacityMaskFilter_2_);}
	.st14{fill:url(#SVGID_10_);}
	.st15{opacity:0.4;mask:url(#SVGID_4_);}
	.st16{fill:#603201;}
	.st17{fill:url(#SVGID_11_);}
	.st18{fill:url(#SVGID_12_);}
	.st19{filter:url(#Adobe_OpacityMaskFilter_3_);}
	.st20{fill:url(#SVGID_13_);}
	.st21{opacity:0.4;mask:url(#SVGID_6_);}
	.st22{fill:#39B54A;}
	.st23{fill:#8DC63F;}
	.st24{fill:#95DB26;}
	.st25{fill:#FFFFFF;}
</style>
<g>
	<g>
		<defs>
			<filter id="Adobe_OpacityMaskFilter" filterUnits="userSpaceOnUse" x="160.9" y="47.9" width="14" height="11">
				<feColorMatrix  type="matrix" values="1 0 0 0 0  0 1 0 0 0  0 0 1 0 0  0 0 0 1 0"/>
			</filter>
		</defs>
		<mask maskUnits="userSpaceOnUse" x="160.9" y="47.9" width="14" height="11" id="SVGID_2_">
			<g class="st0">
				
					<linearGradient id="SVGID_1_" gradientUnits="userSpaceOnUse" x1="158.11" y1="14.8236" x2="176.475" y2="14.8236" gradientTransform="matrix(1 0 0 -1 0 67.9962)">
					<stop  offset="0.2894" style="stop-color:#FFFFFF"/>
					<stop  offset="0.405" style="stop-color:#FCFCFC"/>
					<stop  offset="0.4779" style="stop-color:#F4F4F4"/>
					<stop  offset="0.539" style="stop-color:#E5E5E5"/>
					<stop  offset="0.5936" style="stop-color:#D0D0D0"/>
					<stop  offset="0.6439" style="stop-color:#B5B5B5"/>
					<stop  offset="0.6911" style="stop-color:#949494"/>
					<stop  offset="0.7357" style="stop-color:#6D6D6D"/>
					<stop  offset="0.7784" style="stop-color:#3F3F3F"/>
					<stop  offset="0.8181" style="stop-color:#0D0D0D"/>
					<stop  offset="0.8277" style="stop-color:#000000"/>
				</linearGradient>
				<rect x="158.1" y="46.5" class="st1" width="18.4" height="13.4"/>
			</g>
		</mask>
		<g class="st2">
			<g>
			</g>
		</g>
		<path class="st3" d="M161,55.8h7.9c2.9,0,5.2-2.3,5.2-5.2v-5H161L161,55.8L161,55.8z"/>
		
			<linearGradient id="SVGID_5_" gradientUnits="userSpaceOnUse" x1="167.7213" y1="22.3586" x2="165.3169" y2="12.8028" gradientTransform="matrix(1 0 0 -1 0 67.9962)">
			<stop  offset="0" style="stop-color:#C2920E"/>
			<stop  offset="0.1413" style="stop-color:#C2920E"/>
			<stop  offset="1" style="stop-color:#C2920E"/>
		</linearGradient>
		<path class="st4" d="M161,55.2h7.9c2.6,0,4.5-2.3,4.5-5.2v-5H161V55.2z"/>
		<g class="st5">
		</g>
		<g>
			
				<linearGradient id="SVGID_7_" gradientUnits="userSpaceOnUse" x1="1.447" y1="31.5553" x2="174.3018" y2="51.9374" gradientTransform="matrix(1 0 0 -1 0 67.9962)">
				<stop  offset="0" style="stop-color:#FFF68A"/>
				<stop  offset="0.3202" style="stop-color:#FFE35F"/>
				<stop  offset="0.5616" style="stop-color:#FFCF45"/>
				<stop  offset="0.7878" style="stop-color:#CF9A15"/>
				<stop  offset="1" style="stop-color:#DE9F17"/>
			</linearGradient>
			<path class="st6" d="M169.6,0H22.8C10.2,0,0,10.2,0,22.8c0,12.6,10.2,22.8,22.8,22.8h146.8c0,0,4.5,0.2,4.5,4.5
				c0-3.7,0-41.5,0-45.6C174.1-0.1,169.6,0,169.6,0z"/>
		</g>
	</g>
</g>
<g>
	<g>
		<defs>
			<filter id="Adobe_OpacityMaskFilter_1_" filterUnits="userSpaceOnUse" x="160.9" y="47.9" width="14" height="11">
				<feColorMatrix  type="matrix" values="1 0 0 0 0  0 1 0 0 0  0 0 1 0 0  0 0 0 1 0"/>
			</filter>
		</defs>
		<mask maskUnits="userSpaceOnUse" x="160.9" y="47.9" width="14" height="11" id="SVGID_3_">
			<g class="st7">
				
					<linearGradient id="SVGID_8_" gradientUnits="userSpaceOnUse" x1="158.109" y1="14.8236" x2="176.475" y2="14.8236" gradientTransform="matrix(1 0 0 -1 0 67.9962)">
					<stop  offset="0.2894" style="stop-color:#FFFFFF"/>
					<stop  offset="0.405" style="stop-color:#FCFCFC"/>
					<stop  offset="0.4779" style="stop-color:#F4F4F4"/>
					<stop  offset="0.539" style="stop-color:#E5E5E5"/>
					<stop  offset="0.5936" style="stop-color:#D0D0D0"/>
					<stop  offset="0.6439" style="stop-color:#B5B5B5"/>
					<stop  offset="0.6911" style="stop-color:#949494"/>
					<stop  offset="0.7357" style="stop-color:#6D6D6D"/>
					<stop  offset="0.7784" style="stop-color:#3F3F3F"/>
					<stop  offset="0.8181" style="stop-color:#0D0D0D"/>
					<stop  offset="0.8277" style="stop-color:#000000"/>
				</linearGradient>
				<rect x="158.1" y="46.5" class="st8" width="18.4" height="13.4"/>
			</g>
		</mask>
		<g class="st9">
			<g>
			</g>
		</g>
		<path class="st10" d="M161,55.8h7.9c2.9,0,5.2-2.3,5.2-5.2v-5H161V55.8z"/>
		<path class="st11" d="M161,55.2h7.9c2.6,0,4.5-2.3,4.5-5.2v-5H161V55.2z"/>
		<g class="st5">
		</g>
		<g>
			
				<linearGradient id="SVGID_9_" gradientUnits="userSpaceOnUse" x1="1.4461" y1="31.5541" x2="174.3014" y2="51.9363" gradientTransform="matrix(1 0 0 -1 0 67.9962)">
				<stop  offset="0" style="stop-color:#F8F8F8"/>
				<stop  offset="0.2512" style="stop-color:#DEDEDE"/>
				<stop  offset="0.3484" style="stop-color:#D7D7D7"/>
				<stop  offset="0.4901" style="stop-color:#C4C4C4"/>
				<stop  offset="0.6583" style="stop-color:#A4A4A4"/>
				<stop  offset="0.7211" style="stop-color:#969696"/>
				<stop  offset="0.8262" style="stop-color:#717171"/>
				<stop  offset="0.9248" style="stop-color:#555555"/>
				<stop  offset="0.9816" style="stop-color:#4A4A4A"/>
			</linearGradient>
			<path class="st12" d="M169.6,0H22.8C10.2,0,0,10.2,0,22.8c0,12.6,10.2,22.8,22.8,22.8h146.8c0,0,4.5,0.2,4.5,4.5
				c0-3.7,0-41.5,0-45.6C174.1-0.1,169.6,0,169.6,0z"/>
		</g>
	</g>
</g>
<g>
	<g>
		<defs>
			<filter id="Adobe_OpacityMaskFilter_2_" filterUnits="userSpaceOnUse" x="160.9" y="47.9" width="14" height="11">
				<feColorMatrix  type="matrix" values="1 0 0 0 0  0 1 0 0 0  0 0 1 0 0  0 0 0 1 0"/>
			</filter>
		</defs>
		<mask maskUnits="userSpaceOnUse" x="160.9" y="47.9" width="14" height="11" id="SVGID_4_">
			<g class="st13">
				
					<linearGradient id="SVGID_10_" gradientUnits="userSpaceOnUse" x1="158.107" y1="14.8236" x2="176.475" y2="14.8236" gradientTransform="matrix(1 0 0 -1 0 67.9962)">
					<stop  offset="0.2894" style="stop-color:#FFFFFF"/>
					<stop  offset="0.405" style="stop-color:#FCFCFC"/>
					<stop  offset="0.4779" style="stop-color:#F4F4F4"/>
					<stop  offset="0.539" style="stop-color:#E5E5E5"/>
					<stop  offset="0.5936" style="stop-color:#D0D0D0"/>
					<stop  offset="0.6439" style="stop-color:#B5B5B5"/>
					<stop  offset="0.6911" style="stop-color:#949494"/>
					<stop  offset="0.7357" style="stop-color:#6D6D6D"/>
					<stop  offset="0.7784" style="stop-color:#3F3F3F"/>
					<stop  offset="0.8181" style="stop-color:#0D0D0D"/>
					<stop  offset="0.8277" style="stop-color:#000000"/>
				</linearGradient>
				<rect x="158.1" y="46.5" class="st14" width="18.4" height="13.4"/>
			</g>
		</mask>
		<g class="st15">
			<g>
			</g>
		</g>
		<path class="st16" d="M161,55.8h7.9c2.9,0,5.2-2.3,5.2-5.2v-5H161V55.8z"/>
		
			<linearGradient id="SVGID_11_" gradientUnits="userSpaceOnUse" x1="167.7212" y1="22.3586" x2="165.3168" y2="12.8028" gradientTransform="matrix(1 0 0 -1 0 67.9962)">
			<stop  offset="0" style="stop-color:#C2920E"/>
			<stop  offset="0.1413" style="stop-color:#C2920E"/>
			<stop  offset="1" style="stop-color:#C2920E"/>
		</linearGradient>
		<path class="st17" d="M161,55.2h7.9c2.6,0,4.5-2.3,4.5-5.2v-5H161V55.2z"/>
		<g class="st5">
		</g>
		<g>
			
				<linearGradient id="SVGID_12_" gradientUnits="userSpaceOnUse" x1="1.4459" y1="31.5562" x2="174.3017" y2="51.9384" gradientTransform="matrix(1 0 0 -1 0 67.9962)">
				<stop  offset="0" style="stop-color:#FFCF8A"/>
				<stop  offset="9.880000e-02" style="stop-color:#FDC883"/>
				<stop  offset="0.2405" style="stop-color:#F8B571"/>
				<stop  offset="0.4074" style="stop-color:#F09653"/>
				<stop  offset="0.4283" style="stop-color:#EF924F"/>
				<stop  offset="0.5505" style="stop-color:#C96635"/>
				<stop  offset="0.6636" style="stop-color:#AC4421"/>
				<stop  offset="0.7571" style="stop-color:#9A2F14"/>
				<stop  offset="0.8193" style="stop-color:#942810"/>
				<stop  offset="0.8527" style="stop-color:#982E14"/>
				<stop  offset="0.8979" style="stop-color:#A33F1F"/>
				<stop  offset="0.9495" style="stop-color:#B45B30"/>
				<stop  offset="1" style="stop-color:#CA7E46"/>
			</linearGradient>
			<path class="st18" d="M169.6,0H22.8C10.2,0,0,10.2,0,22.8c0,12.6,10.2,22.8,22.8,22.8h146.8c0,0,4.5,0.2,4.5,4.5
				c0-3.7,0-41.5,0-45.6C174.1-0.1,169.6,0,169.6,0z"/>
		</g>
	</g>
</g>
<g>
	<g>
		<defs>
			<filter id="Adobe_OpacityMaskFilter_3_" filterUnits="userSpaceOnUse" x="160.9" y="47.9" width="14" height="11">
				<feColorMatrix  type="matrix" values="1 0 0 0 0  0 1 0 0 0  0 0 1 0 0  0 0 0 1 0"/>
			</filter>
		</defs>
		<mask maskUnits="userSpaceOnUse" x="160.9" y="47.9" width="14" height="11" id="SVGID_6_">
			<g class="st19">
				
					<linearGradient id="SVGID_13_" gradientUnits="userSpaceOnUse" x1="158.11" y1="14.8236" x2="176.473" y2="14.8236" gradientTransform="matrix(1 0 0 -1 0 67.9962)">
					<stop  offset="0.2894" style="stop-color:#FFFFFF"/>
					<stop  offset="0.405" style="stop-color:#FCFCFC"/>
					<stop  offset="0.4779" style="stop-color:#F4F4F4"/>
					<stop  offset="0.539" style="stop-color:#E5E5E5"/>
					<stop  offset="0.5936" style="stop-color:#D0D0D0"/>
					<stop  offset="0.6439" style="stop-color:#B5B5B5"/>
					<stop  offset="0.6911" style="stop-color:#949494"/>
					<stop  offset="0.7357" style="stop-color:#6D6D6D"/>
					<stop  offset="0.7784" style="stop-color:#3F3F3F"/>
					<stop  offset="0.8181" style="stop-color:#0D0D0D"/>
					<stop  offset="0.8277" style="stop-color:#000000"/>
				</linearGradient>
				<rect x="158.1" y="46.5" class="st20" width="18.4" height="13.4"/>
			</g>
		</mask>
		<g class="st21">
			<g>
			</g>
		</g>
		<path class="st22" d="M161,55.8h7.9c2.9,0,5.2-2.3,5.2-5.2v-5H161L161,55.8L161,55.8z"/>
		<path class="st23" d="M161,55.2h7.9c2.6,0,4.5-2.3,4.5-5.2v-5H161L161,55.2L161,55.2z"/>
		<g class="st5">
		</g>
		<g>
			<path class="st24" d="M169.6,0H22.8C10.2,0,0,10.2,0,22.8c0,12.6,10.2,22.8,22.8,22.8h146.8c0,0,4.5,0.2,4.5,4.5
				c0-3.7,0-41.5,0-45.6C174.1-0.1,169.6,0,169.6,0z"/>
		</g>
	</g>
	<g>
		<g>
			<path class="st25" d="M48.1,10.8h11.1v3.7h-7v6.8h5.6V25h-5.6v7.9h7v3.7H48.1V10.8z"/>
			<path class="st25" d="M65.1,23.4l-4.5-12.6h4.3l2.7,8.3h0.1l2.8-8.3h3.8l-4.5,12.6l4.7,13.2h-4.3l-2.9-9h-0.1l-3,9h-3.8
				L65.1,23.4z"/>
			<path class="st25" d="M76.5,10.8h4.1v10.5h4.3V10.8H89v25.8h-4.1V24.9h-4.3v11.6h-4.1V10.8z"/>
			<path class="st25" d="M92,10.8H96v25.8H92V10.8z"/>
			<path class="st25" d="M99.1,10.8h6.1c2.1,0,3.6,0.5,4.6,1.5c1,1,1.4,2.5,1.4,4.5v1c0,1.3-0.2,2.4-0.6,3.2c-0.4,0.8-1.1,1.4-2,1.8
				v0.1c2,0.7,3,2.5,3,5.4v2.2c0,2-0.5,3.5-1.6,4.6s-2.6,1.6-4.6,1.6h-6.4L99.1,10.8L99.1,10.8z M104.7,21.3c0.8,0,1.4-0.2,1.8-0.6
				c0.4-0.4,0.6-1.1,0.6-2.1v-1.4c0-0.9-0.2-1.6-0.5-2c-0.3-0.4-0.9-0.6-1.6-0.6h-2v6.8L104.7,21.3L104.7,21.3z M105.4,32.9
				c0.7,0,1.2-0.2,1.6-0.6c0.3-0.4,0.5-1,0.5-2v-2.2c0-1.2-0.2-2-0.6-2.4s-1.1-0.7-2-0.7h-1.8v7.9C103.1,32.9,105.4,32.9,105.4,32.9
				z"/>
			<path class="st25" d="M113.9,10.8h4.1v25.8h-4.1V10.8z"/>
			<path class="st25" d="M124.2,14.4h-4.2v-3.7h12.5v3.7h-4.2v22.1h-4.1C124.2,36.6,124.2,14.4,124.2,14.4z"/>
			<path class="st25" d="M135.6,35.2c-1.1-1.1-1.6-2.7-1.6-4.8V16.9c0-2.1,0.5-3.7,1.6-4.8c1.1-1.1,2.6-1.7,4.6-1.7s3.5,0.6,4.6,1.7
				c1.1,1.1,1.6,2.7,1.6,4.8v13.6c0,2.1-0.5,3.7-1.6,4.8c-1.1,1.1-2.6,1.7-4.6,1.7S136.6,36.4,135.6,35.2z M142.2,30.7V16.6
				c0-1.7-0.7-2.5-2.1-2.5s-2.1,0.8-2.1,2.5v14.1c0,1.7,0.7,2.5,2.1,2.5S142.2,32.4,142.2,30.7z"/>
			<path class="st25" d="M149,10.8h6c2.1,0,3.6,0.5,4.6,1.5c1,1,1.4,2.5,1.4,4.5v1.6c0,2.7-0.9,4.4-2.7,5.1v0.1
				c1,0.3,1.7,0.9,2.1,1.8c0.4,0.9,0.6,2.1,0.6,3.6v4.5c0,0.7,0,1.3,0.1,1.8c0,0.5,0.2,0.9,0.4,1.3h-4.1c-0.1-0.4-0.2-0.8-0.3-1.2
				c-0.1-0.4-0.1-1-0.1-2v-4.7c0-1.2-0.2-2-0.6-2.5s-1-0.7-2-0.7h-1.4v11.1H149L149,10.8L149,10.8z M154.6,21.8
				c0.8,0,1.4-0.2,1.8-0.6c0.4-0.4,0.6-1.1,0.6-2.1v-2c0-0.9-0.2-1.6-0.5-2s-0.9-0.6-1.6-0.6h-1.8v7.4H154.6z"/>
		</g>
	</g>
</g>
</svg>
