<?xml version="1.0" encoding="utf-8"?>
<!-- Generator: Adobe Illustrator 24.0.1, SVG Export Plug-In . SVG Version: 6.00 Build 0)  -->
<svg version="1.1" id="Layer_1" xmlns="http://www.w3.org/2000/svg" xmlns:xlink="http://www.w3.org/1999/xlink" x="0px" y="0px"
	 viewBox="0 0 174.9 58.9" style="enable-background:new 0 0 174.9 58.9;" xml:space="preserve">
<style type="text/css">
	.st0{filter:url(#Adobe_OpacityMaskFilter);}
	.st1{fill:url(#SVGID_1_);}
	.st2{opacity:0.4;mask:url(#SVGID_2_);}
	.st3{fill:#603201;}
	.st4{fill:url(#SVGID_3_);}
	.st5{opacity:0.3;}
	.st6{fill:url(#SVGID_4_);}
	.st7{fill:#FFFFFF;}
</style>
<g>
	<g>
		<defs>
			<filter id="Adobe_OpacityMaskFilter" filterUnits="userSpaceOnUse" x="160.9" y="47.9" width="14" height="11">
				<feColorMatrix  type="matrix" values="1 0 0 0 0  0 1 0 0 0  0 0 1 0 0  0 0 0 1 0"/>
			</filter>
		</defs>
		<mask maskUnits="userSpaceOnUse" x="160.9" y="47.9" width="14" height="11" id="SVGID_2_">
			<g class="st0">
				
					<linearGradient id="SVGID_1_" gradientUnits="userSpaceOnUse" x1="158.107" y1="14.8256" x2="176.475" y2="14.8256" gradientTransform="matrix(1 0 0 -1 0 68.0002)">
					<stop  offset="0.2894" style="stop-color:#FFFFFF"/>
					<stop  offset="0.405" style="stop-color:#FCFCFC"/>
					<stop  offset="0.4779" style="stop-color:#F4F4F4"/>
					<stop  offset="0.539" style="stop-color:#E5E5E5"/>
					<stop  offset="0.5936" style="stop-color:#D0D0D0"/>
					<stop  offset="0.6439" style="stop-color:#B5B5B5"/>
					<stop  offset="0.6911" style="stop-color:#949494"/>
					<stop  offset="0.7357" style="stop-color:#6D6D6D"/>
					<stop  offset="0.7784" style="stop-color:#3F3F3F"/>
					<stop  offset="0.8181" style="stop-color:#0D0D0D"/>
					<stop  offset="0.8277" style="stop-color:#000000"/>
				</linearGradient>
				<rect x="158.1" y="46.5" class="st1" width="18.4" height="13.4"/>
			</g>
		</mask>
		<g class="st2">
			<g>
			</g>
		</g>
		<path class="st3" d="M161,55.8h7.9c2.9,0,5.2-2.3,5.2-5.2v-5H161V55.8z"/>
		
			<linearGradient id="SVGID_3_" gradientUnits="userSpaceOnUse" x1="167.7211" y1="22.3604" x2="165.3167" y2="12.8046" gradientTransform="matrix(1 0 0 -1 0 68.0002)">
			<stop  offset="0" style="stop-color:#C2920E"/>
			<stop  offset="0.1413" style="stop-color:#C2920E"/>
			<stop  offset="1" style="stop-color:#C2920E"/>
		</linearGradient>
		<path class="st4" d="M161,55.2h7.9c2.6,0,4.5-2.3,4.5-5.2v-5H161V55.2z"/>
		<g class="st5">
		</g>
		<g>
			
				<linearGradient id="SVGID_4_" gradientUnits="userSpaceOnUse" x1="1.4459" y1="31.5582" x2="174.3017" y2="51.9404" gradientTransform="matrix(1 0 0 -1 0 68.0002)">
				<stop  offset="0" style="stop-color:#FFCF8A"/>
				<stop  offset="9.880000e-02" style="stop-color:#FDC883"/>
				<stop  offset="0.2405" style="stop-color:#F8B571"/>
				<stop  offset="0.4074" style="stop-color:#F09653"/>
				<stop  offset="0.4283" style="stop-color:#EF924F"/>
				<stop  offset="0.5505" style="stop-color:#C96635"/>
				<stop  offset="0.6636" style="stop-color:#AC4421"/>
				<stop  offset="0.7571" style="stop-color:#9A2F14"/>
				<stop  offset="0.8193" style="stop-color:#942810"/>
				<stop  offset="0.8527" style="stop-color:#982E14"/>
				<stop  offset="0.8979" style="stop-color:#A33F1F"/>
				<stop  offset="0.9495" style="stop-color:#B45B30"/>
				<stop  offset="1" style="stop-color:#CA7E46"/>
			</linearGradient>
			<path class="st6" d="M169.6,0H22.8C10.2,0,0,10.2,0,22.8c0,12.6,10.2,22.8,22.8,22.8h146.8c0,0,4.5,0.2,4.5,4.5
				c0-3.7,0-41.5,0-45.6C174.1-0.1,169.6,0,169.6,0z"/>
		</g>
	</g>
	<g>
		<path class="st7" d="M61.5,35.3c-1-1.1-1.5-2.7-1.5-4.8V29h3.8v1.8c0,1.7,0.7,2.5,2.1,2.5c0.7,0,1.2-0.2,1.6-0.6
			c0.4-0.4,0.5-1.1,0.5-2c0-1.1-0.2-2-0.7-2.9c-0.5-0.8-1.4-1.8-2.7-3c-1.7-1.5-2.8-2.8-3.5-4c-0.7-1.2-1-2.5-1-4
			c0-2,0.5-3.6,1.5-4.7c1-1.1,2.5-1.7,4.5-1.7c1.9,0,3.4,0.6,4.4,1.7c1,1.1,1.5,2.7,1.5,4.8V18h-3.8v-1.3c0-0.9-0.2-1.5-0.5-1.9
			c-0.3-0.4-0.8-0.6-1.5-0.6c-1.4,0-2,0.8-2,2.5c0,0.9,0.3,1.8,0.8,2.6c0.5,0.8,1.4,1.8,2.7,2.9c1.7,1.5,2.9,2.8,3.5,4s1,2.6,1,4.2
			c0,2.1-0.5,3.7-1.6,4.9c-1,1.1-2.6,1.7-4.6,1.7C64,37,62.5,36.4,61.5,35.3z"/>
		<path class="st7" d="M74.4,10.8h6c2,0,3.5,0.5,4.5,1.6c1,1.1,1.5,2.7,1.5,4.8v2.5c0,2.1-0.5,3.7-1.5,4.8c-1,1.1-2.5,1.6-4.5,1.6
			h-1.9v10.5h-4.1V10.8z M80.4,22.4c0.7,0,1.2-0.2,1.5-0.6c0.3-0.4,0.5-1,0.5-1.9v-3.1c0-0.9-0.2-1.5-0.5-1.9
			c-0.3-0.4-0.8-0.6-1.5-0.6h-1.9v7.9L80.4,22.4L80.4,22.4z"/>
		<path class="st7" d="M89.9,35.3c-1.1-1.1-1.6-2.7-1.6-4.8V16.9c0-2.1,0.5-3.7,1.6-4.8s2.6-1.7,4.6-1.7S98,11,99,12.2
			s1.6,2.7,1.6,4.8v13.6c0,2.1-0.5,3.7-1.6,4.8C98,36.4,96.5,37,94.5,37S91,36.4,89.9,35.3z M96.6,30.8V16.7c0-1.7-0.7-2.5-2.1-2.5
			c-1.4,0-2.1,0.8-2.1,2.5v14.1c0,1.7,0.7,2.5,2.1,2.5C95.9,33.3,96.6,32.5,96.6,30.8z"/>
		<path class="st7" d="M103.3,10.8h5.1l3.9,15.4h0.1V10.8h3.6v25.8h-4.2L107,17.8H107v18.8h-3.6V10.8z"/>
		<path class="st7" d="M119.9,35.3c-1-1.1-1.5-2.7-1.5-4.8V29h3.8v1.8c0,1.7,0.7,2.5,2.1,2.5c0.7,0,1.2-0.2,1.6-0.6
			c0.4-0.4,0.5-1.1,0.5-2c0-1.1-0.2-2-0.7-2.9c-0.5-0.8-1.4-1.8-2.7-3c-1.7-1.5-2.8-2.8-3.5-4c-0.7-1.2-1-2.5-1-4
			c0-2,0.5-3.6,1.5-4.7c1-1.1,2.5-1.7,4.5-1.7c1.9,0,3.4,0.6,4.4,1.7c1,1.1,1.5,2.7,1.5,4.8V18h-3.8v-1.3c0-0.9-0.2-1.5-0.5-1.9
			c-0.3-0.4-0.8-0.6-1.5-0.6c-1.4,0-2,0.8-2,2.5c0,0.9,0.3,1.8,0.8,2.6c0.5,0.8,1.4,1.8,2.7,2.9c1.7,1.5,2.9,2.8,3.5,4s1,2.6,1,4.2
			c0,2.1-0.5,3.7-1.6,4.9c-1,1.1-2.6,1.7-4.6,1.7C122.4,37,120.9,36.4,119.9,35.3z"/>
		<path class="st7" d="M134.1,35.3c-1.1-1.1-1.6-2.7-1.6-4.8V16.9c0-2.1,0.5-3.7,1.6-4.8c1.1-1.1,2.6-1.7,4.6-1.7
			c2,0,3.5,0.6,4.6,1.7s1.6,2.7,1.6,4.8v13.6c0,2.1-0.5,3.7-1.6,4.8c-1.1,1.1-2.6,1.7-4.6,1.7C136.7,37,135.1,36.4,134.1,35.3z
			 M140.7,30.8V16.7c0-1.7-0.7-2.5-2.1-2.5c-1.4,0-2.1,0.8-2.1,2.5v14.1c0,1.7,0.7,2.5,2.1,2.5C140,33.3,140.7,32.5,140.7,30.8z"/>
		<path class="st7" d="M147.5,10.8h6c2.1,0,3.6,0.5,4.6,1.5c1,1,1.4,2.5,1.4,4.5v1.6c0,2.7-0.9,4.4-2.7,5.1v0.1
			c1,0.3,1.7,0.9,2.1,1.8c0.4,0.9,0.6,2.1,0.6,3.6v4.5c0,0.7,0,1.3,0.1,1.8s0.2,0.9,0.4,1.3h-4.1c-0.1-0.4-0.2-0.8-0.3-1.2
			c-0.1-0.4-0.1-1-0.1-2v-4.7c0-1.2-0.2-2-0.6-2.5s-1-0.7-2-0.7h-1.4v11.1h-4.1V10.8z M153.1,21.9c0.8,0,1.4-0.2,1.8-0.6
			s0.6-1.1,0.6-2.1v-2c0-0.9-0.2-1.6-0.5-2s-0.9-0.6-1.6-0.6h-1.8v7.4H153.1z"/>
	</g>
</g>
</svg>
