<?xml version="1.0" encoding="utf-8"?>
<!-- Generator: Adobe Illustrator 16.0.0, SVG Export Plug-In . SVG Version: 6.00 Build 0)  -->
<!DOCTYPE svg PUBLIC "-//W3C//DTD SVG 1.1//EN" "http://www.w3.org/Graphics/SVG/1.1/DTD/svg11.dtd">
<svg version="1.1" id="Layer_1" xmlns="http://www.w3.org/2000/svg" xmlns:xlink="http://www.w3.org/1999/xlink" x="0px" y="0px"
	 width="318.3px" height="225.061px" viewBox="0 0 318.3 225.061" enable-background="new 0 0 318.3 225.061" xml:space="preserve">
<path fill="#FFFFFF" d="M123.92,48.191c-1.41-1.416-3.7-1.42-5.115-0.01c-0.003,0.004-0.006,0.006-0.009,0.01L99.603,67.272
	l-6.842-6.667c-1.41-1.414-3.7-1.418-5.115-0.009c-0.003,0.003-0.006,0.006-0.009,0.009l-4.732,4.738
	c-1.415,1.41-1.418,3.7-0.009,5.115c0.003,0.003,0.006,0.006,0.009,0.009l14.344,14.286c1.487,1.414,3.821,1.414,5.308,0
	l4.699-4.707l21.762-21.759c1.411-1.412,1.423-3.697,0.027-5.124L123.92,48.191z M123.92,96.171c-1.41-1.415-3.7-1.419-5.115-0.01
	c-0.003,0.004-0.006,0.006-0.009,0.01l-19.193,19.205l-6.842-6.661c-1.41-1.415-3.7-1.419-5.115-0.009
	c-0.003,0.003-0.006,0.006-0.009,0.009l-4.732,4.729c-1.415,1.41-1.418,3.699-0.009,5.115c0.003,0.002,0.006,0.006,0.009,0.008
	l14.308,14.317c1.486,1.413,3.819,1.413,5.305,0l4.732-4.729l21.762-21.768c1.406-1.402,1.418-3.676,0.027-5.094L123.92,96.171z
	 M101.131,148.407c-7.984,0-14.646,6.48-14.646,14.467c0,7.987,6.667,14.468,14.646,14.468c7.99,0,14.467-6.478,14.467-14.468
	S109.121,148.407,101.131,148.407z M231.337,153.23h-86.805c-2.663,0-4.822,2.159-4.822,4.822v9.645
	c0,2.664,2.159,4.823,4.822,4.823h86.805c2.664,0,4.822-2.159,4.822-4.823v-9.645C236.16,155.389,234.001,153.23,231.337,153.23z
	 M231.337,56.781h-86.805c-2.663,0-4.822,2.158-4.822,4.822v9.645c0,2.664,2.159,4.822,4.822,4.822h86.805
	c2.664,0,4.822-2.158,4.822-4.822v-9.645C236.16,58.939,234.001,56.781,231.337,56.781z M231.337,105.005h-86.805
	c-2.663,0-4.822,2.159-4.822,4.822v9.645c0,2.664,2.159,4.823,4.822,4.823h86.805c2.664,0,4.822-2.159,4.822-4.823v-9.645
	C236.16,107.164,234.001,105.005,231.337,105.005z"/>
</svg>
