<?xml version="1.0" encoding="utf-8"?>
<!-- Generator: Adobe Illustrator 16.0.0, SVG Export Plug-In . SVG Version: 6.00 Build 0)  -->
<!DOCTYPE svg PUBLIC "-//W3C//DTD SVG 1.1//EN" "http://www.w3.org/Graphics/SVG/1.1/DTD/svg11.dtd">
<svg version="1.1" id="Layer_1" xmlns="http://www.w3.org/2000/svg" xmlns:xlink="http://www.w3.org/1999/xlink" x="0px" y="0px"
	 width="318.301px" height="225.061px" viewBox="0 0 318.301 225.061" enable-background="new 0 0 318.301 225.061"
	 xml:space="preserve">
<path d="M251.795,70.307c0.613-0.487,1.525-0.03,1.525,0.74v32.196c0,4.174-3.385,7.559-7.557,7.559h-65.498
	c-4.172,0-7.557-3.385-7.557-7.559v-32.18c0-0.787,0.896-1.229,1.525-0.74c3.527,2.738,8.203,6.219,24.264,17.886
	c3.322,2.425,8.928,7.526,14.518,7.494c5.621,0.048,11.336-5.164,14.531-7.494C243.606,76.541,248.268,73.046,251.795,70.307z
	 M213.016,90.649c3.652,0.063,8.91-4.599,11.557-6.52c20.895-15.162,22.482-16.484,27.303-20.263
	c0.912-0.709,1.447-1.812,1.447-2.978v-2.99c0-4.174-3.385-7.559-7.559-7.559h-65.498c-4.172,0-7.557,3.385-7.557,7.559v2.99
	c0,1.166,0.533,2.252,1.447,2.978c4.818,3.762,6.408,5.101,27.303,20.263C204.102,86.051,209.362,90.712,213.016,90.649
	L213.016,90.649z"/>
<path d="M187.334,138.448l-27.438-11.759c-2.408-1.026-5.203-0.338-6.859,1.689l-12.15,14.846
	c-19.069-8.99-34.416-24.338-43.407-43.406l14.846-12.15c2.031-1.653,2.723-4.453,1.69-6.86l-11.759-27.437
	c-1.136-2.606-3.965-4.036-6.737-3.406l-25.478,5.88c-2.668,0.616-4.558,2.992-4.558,5.729c0,62.837,50.932,113.67,113.669,113.67
	c2.738,0.002,5.115-1.888,5.732-4.558l5.879-25.478C191.393,142.425,189.951,139.587,187.334,138.448L187.334,138.448z"/>
</svg>
