<?xml version="1.0" encoding="utf-8"?>
<!-- Generator: Adobe Illustrator 16.0.0, SVG Export Plug-In . SVG Version: 6.00 Build 0)  -->
<!DOCTYPE svg PUBLIC "-//W3C//DTD SVG 1.1//EN" "http://www.w3.org/Graphics/SVG/1.1/DTD/svg11.dtd">
<svg version="1.1" id="Layer_1" xmlns="http://www.w3.org/2000/svg" xmlns:xlink="http://www.w3.org/1999/xlink" x="0px" y="0px"
	 width="318.299px" height="225.061px" viewBox="0 0 318.299 225.061" enable-background="new 0 0 318.299 225.061"
	 xml:space="preserve">
<g>
	<path fill-rule="evenodd" clip-rule="evenodd" fill="#FFFFFF" d="M132.445,122.302c-32.093-22.409-29.453-62.932-9.384-83.16
		c20.835-21.017,54.159-20.129,73.671,1.97c19.11,21.652,19.024,59.982-11.199,81.031c1.101,0.503,1.964,0.947,2.856,1.33
		c28.104,12.469,44.574,34.395,49.662,65.576c0.287,1.769,0.307,3.594,0.332,5.411c0.056,3.492-1.848,5.635-5.001,6.007
		c-3.206,0.374-5.447-1.464-6.073-4.815c-0.797-4.219-1.11-8.571-2.104-12.748c-7.491-31.678-36.725-54.403-68.357-53.292
		c-31.89,1.131-59.321,25.46-64.976,57.64c-0.388,2.193-0.61,4.393-0.868,6.613c-0.505,4.393-2.942,7.007-6.278,6.703
		c-3.453-0.331-5.547-3.078-5.062-7.592c3.425-32.039,19.541-54.691,47.55-68.461C128.795,123.735,130.45,123.141,132.445,122.302z
		 M158.948,117.661c21.937,0.02,39.582-18.153,39.627-40.756c0.055-22.964-17.459-41.246-39.54-41.254
		c-21.933,0-39.603,18.148-39.658,40.751C119.33,99.349,136.913,117.661,158.948,117.661z"/>
</g>
</svg>
