<?xml version="1.0" encoding="utf-8"?>
<!-- Generator: Adobe Illustrator 16.0.0, SVG Export Plug-In . SVG Version: 6.00 Build 0)  -->
<!DOCTYPE svg PUBLIC "-//W3C//DTD SVG 1.1//EN" "http://www.w3.org/Graphics/SVG/1.1/DTD/svg11.dtd">
<svg version="1.1" id="Layer_1" xmlns="http://www.w3.org/2000/svg" xmlns:xlink="http://www.w3.org/1999/xlink" x="0px" y="0px"
	 width="318.299px" height="225.061px" viewBox="0 0 318.299 225.061" enable-background="new 0 0 318.299 225.061"
	 xml:space="preserve">
<g>
	<g>
		<path fill-rule="evenodd" clip-rule="evenodd" fill="#FFFFFF" d="M83.68,77.438c0-6.715-0.617-13.315,0.161-19.747
			c0.912-7.533,7.645-12.587,15.504-12.757c5.297-0.114,10.598-0.021,16.475-0.021c0-5.189,0.089-9.941-0.024-14.688
			c-0.117-4.943,2.3-7.021,7.097-7.254c14.443-0.701,15.211-0.048,15.215,14.176c0.001,2.308,0,4.615,0,7.344
			c14.185,0,28.141,0,43.021,0c0-4.484-0.057-9.192,0.015-13.898c0.086-5.624,1.76-7.316,7.271-7.592
			c14.398-0.717,14.999-0.142,15,14.33c0,2.29,0,4.582,0,7.583c5.4,0,10.486-0.044,15.573,0.009
			c9.596,0.098,16.275,6.119,16.877,15.614c0.346,5.467,0.063,10.974,0.063,16.902C185.108,77.438,134.688,77.438,83.68,77.438z"/>
		<path fill-rule="evenodd" clip-rule="evenodd" fill="#FFFFFF" d="M81.464,85.649c52.379,0,103.935,0,155.998,0
			c0.108,1.82,0.295,3.519,0.296,5.216c0.018,28.825,0.035,57.65,0.001,86.476c-0.017,14.835-8.26,22.985-23.201,22.991
			c-36.654,0.017-73.308,0.017-109.963,0c-15.001-0.006-23.132-8.109-23.135-23.004c-0.005-28.469,0.001-56.938,0.003-85.407
			C81.464,89.995,81.464,88.07,81.464,85.649z M92.194,96.378c0,2.283,0,4.039,0,5.796c0,24.727-0.006,49.453,0.002,74.182
			c0.004,9.882,3.218,13.197,12.988,13.204c36.291,0.027,72.581,0.027,108.871,0c9.493-0.006,12.968-3.438,12.976-12.736
			c0.023-25.083,0.013-50.167-0.005-75.249c-0.001-1.699-0.177-3.396-0.278-5.196C181.804,96.378,137.38,96.378,92.194,96.378z"/>
		<path fill-rule="evenodd" clip-rule="evenodd" fill="#FFFFFF" d="M161.401,140.071c5.487-2.309,10.618-13.828,15.467-9.28
			c4.939,5.241-6.869,10.019-9.134,15.86c2.236,5.253,13.005,10.559,9.379,15.275c-4.739,4.716-10.155-7.017-16.073-9.038
			c-5.25,2.405-10.734,14.11-15.35,9.327c-5.529-5.539,7.069-10.04,9.148-15.844c-2.303-5.408-14.321-11.23-9.296-15.468
			C150.307,125.888,155.679,137.967,161.401,140.071z"/>
		<path fill-rule="evenodd" clip-rule="evenodd" fill="#FFFFFF" d="M107.416,148.489c5.421-5.82,12.359-14.196,18.643-19.055
			c5.74-4.438,9.477,2.504,5.558,5.968c-7.952,7.029-14.557,15.486-22.172,22.895c-4.279,4.163-10.208,2.566-11.599-3.056
			c-0.925-3.74-1.321-7.727-1.165-11.572c0.083-2.029,1.44-4.412,2.949-5.897c3.093-3.044,6.204-1.863,7.202,2.387
			C107.269,142.018,106.856,148.153,107.416,148.489z"/>
		<path fill-rule="evenodd" clip-rule="evenodd" fill="#FFFFFF" d="M204.65,127.163c-0.234,4.168-1.129,5.072-1.219,6.688
			c-2.791,0.356-3.651,3.229-4.212,4.589c-2.692,6.525,0.622,11.229,5.842,15.368c-1.082,2.13-2.105,4.145-3.117,6.133
			c-9.633-3.402-13.319-14.826-8.098-24.3c0.875-1.589,1.843-2.725,3.045-5.661C198.525,129.544,201.013,128.135,204.65,127.163z"/>
		<path fill-rule="evenodd" clip-rule="evenodd" fill="#FFFFFF" d="M208.435,133.639c1.2-2.213,2.273-4.194,3.333-6.15
			c9.836,4.578,13.078,15.38,7.825,24.679c-1.56,2.76-4.204,4.712-3.081,5.511c-1.656,0.454-3.815,1.816-7.685,2.88
			c0.253-3.33,1.041-5.596,1.144-6.951c3.041-0.426,3.947-3.399,4.578-4.865C216.647,143.873,214.814,139.631,208.435,133.639z"/>
	</g>
	<polygon fill-rule="evenodd" clip-rule="evenodd" fill="#FFFFFF" points="214.571,154.141 218.527,158.478 212.793,159.733 
		207.06,160.991 208.838,155.399 210.615,149.805 	"/>
	<polygon fill-rule="evenodd" clip-rule="evenodd" fill="#FFFFFF" points="199.155,132.938 195.073,128.719 200.767,127.294 
		206.46,125.869 204.847,131.512 203.236,137.155 	"/>
</g>
</svg>
