<?xml version="1.0" encoding="utf-8"?>
<!-- Generator: Adobe Illustrator 16.0.0, SVG Export Plug-In . SVG Version: 6.00 Build 0)  -->
<!DOCTYPE svg PUBLIC "-//W3C//DTD SVG 1.1//EN" "http://www.w3.org/Graphics/SVG/1.1/DTD/svg11.dtd">
<svg version="1.1" id="Layer_1" xmlns="http://www.w3.org/2000/svg" xmlns:xlink="http://www.w3.org/1999/xlink" x="0px" y="0px"
	 width="318.3px" height="225.062px" viewBox="0 0 318.3 225.062" enable-background="new 0 0 318.3 225.062" xml:space="preserve">
<g>
	<path fill-rule="evenodd" clip-rule="evenodd" fill="#FFFFFF" d="M173.858,136.129c-10.444,0-19.911,0-30.412,0
		c0,4.593,0,8.956,0,13.32c-0.001,12.733,0.072,25.465-0.03,38.198c-0.063,8.151-3.117,11.164-11.167,11.206
		c-12.307,0.063-24.617,0.041-36.925,0.008c-7.036-0.02-8.426-1.404-8.441-8.652c-0.039-23.117-0.016-46.233-0.016-70.307
		c-4.253,0-8.216,0.26-12.116-0.117c-1.607-0.16-3.863-1.358-4.398-2.67c-0.552-1.354,0.556-3.434,1.092-5.153
		c0.171-0.538,0.832-0.932,1.283-1.384c26.855-26.863,53.738-53.695,80.53-80.626c3.797-3.818,6.936-3.869,10.76-0.024
		c26.79,26.924,53.71,53.726,80.444,80.705c1.538,1.552,2.998,4.761,2.378,6.403c-0.568,1.517-3.916,2.435-6.161,2.77
		c-3.093,0.456-6.302,0.108-10.175,0.108c-0.118,2.543-0.311,4.772-0.313,7.002c-0.024,21.006,0.009,42.018-0.026,63.03
		c-0.017,7.75-1.197,8.907-8.74,8.919c-12.099,0.018-24.193,0.049-36.29-0.008c-8.088-0.04-11.199-3.04-11.246-11.127
		C173.794,170.792,173.858,153.848,173.858,136.129z M221.481,189.773c0-2.861,0-5.143,0-7.421c0-20.162,0-40.325,0-60.482
		c0-10.175,0.004-10.175,8.724-11.328c-23.947-23.854-48.177-47.99-71.697-71.416c-23.47,23.468-47.567,47.562-71.357,71.351
		c8.555,1.324,8.555,1.324,8.555,11.423c0.001,20.373,0,40.745,0,61.117c0,2.218,0,4.437,0,6.581c13.528,0,25.978,0,39.134,0
		c0-20.779,0-41.244,0-61.853c16.235,0,31.755,0,47.98,0c0,20.983,0,41.436,0,62.028
		C195.82,189.773,208.109,189.773,221.481,189.773z"/>
</g>
</svg>
