<?xml version="1.0" encoding="utf-8"?>
<!-- Generator: Adobe Illustrator 16.0.0, SVG Export Plug-In . SVG Version: 6.00 Build 0)  -->
<!DOCTYPE svg PUBLIC "-//W3C//DTD SVG 1.1//EN" "http://www.w3.org/Graphics/SVG/1.1/DTD/svg11.dtd">
<svg version="1.1" id="Layer_1" xmlns="http://www.w3.org/2000/svg" xmlns:xlink="http://www.w3.org/1999/xlink" x="0px" y="0px"
	 width="318.3px" height="225.061px" viewBox="0 0 318.3 225.061" enable-background="new 0 0 318.3 225.061" xml:space="preserve">
<g>
	<path fill-rule="evenodd" clip-rule="evenodd" fill="#464855" d="M146.391,103.745c-0.466,6.184-0.882,12.374-1.405,18.551
		c-0.952,11.234-1.986,22.467-2.956,33.701c-0.915,10.563-1.765,21.133-2.712,31.696c-0.263,2.912-0.475,5.701,2.824,7.331
		c-0.241,0.271-0.479,0.542-0.721,0.806c-3.208-2.175-7.625-3.685-9.275-6.705c-1.6-2.929-0.347-7.403-0.347-11.688
		c-0.703,0-1.723,0-2.738,0c-10.121-0.006-20.239,0.017-30.362-0.013c-7.099-0.026-11.119-4.517-10.554-11.581
		c1.485-18.521,2.895-37.048,4.404-55.565c0.918-11.244,1.974-22.477,2.952-33.718c0.733-8.411,3.752-11.229,12.262-11.428
		c0.577-0.01,1.153-0.081,2.177-0.166c0-2.016-0.013-4.015,0-6.017c0.123-17.129,13.558-30.715,30.469-30.819
		c16.957-0.098,30.581,13.293,30.902,30.392c0.039,2.032,0.005,4.063,0.005,6.435c1.488,0.065,2.796,0.134,4.105,0.176
		c5.758,0.209,9.512,3.529,10.082,9.278c0.774,7.844,1.346,15.703,2.013,23.557c0.078,0.949,0.213,1.888,0.355,3.127
		c3.404,0,6.679,0,9.953,0c6.715-0.006,13.43-0.029,20.142,0c4.117,0.02,6.056,1.504,6.431,5.524
		c1.083,11.516,1.983,23.051,2.942,34.583c1.311,15.703,2.61,31.409,3.911,47.112c0.058,0.678,0.133,1.356,0.155,2.038
		c0.122,3.835-1.911,6.177-5.717,6.184c-25.885,0.042-51.768,0.042-77.654-0.01c-3.915-0.01-5.99-2.541-5.659-6.49
		c1.769-21.133,3.564-42.266,5.313-63.398c0.519-6.285,0.949-12.576,1.372-18.863c0.31-4.635,2.386-6.66,7-6.676
		c7.687-0.023,15.373-0.029,23.061-0.053c0.181,0,0.36-0.104,0.76-0.222c0-1.249,0.088-2.566-0.019-3.878
		c-0.502-6.301-1.102-12.598-1.576-18.905c-0.416-5.498-1.08-6.05-6.919-5.022c0.31,3.425-0.935,6.917,1.368,10.3
		c1.446,2.123,0.392,5.169-1.673,6.786c-2.052,1.607-4.977,1.595-7.025-0.032c-2.085-1.663-3.039-4.592-1.585-6.787
		c2.254-3.392,0.83-6.9,1.402-10.508c-15.585,0-30.73,0-46.264,0c0.176,3.493-1.07,6.946,1.14,10.322
		c1.438,2.198,0.635,5.149-1.373,6.858c-1.987,1.686-4.915,1.794-7.026,0.261c-2.118-1.539-3.304-4.572-1.865-6.715
		c2.27-3.386,1.112-6.911,1.493-10.335c-5.306-1.458-6.563-0.591-6.973,4.377c-2.44,29.566-4.898,59.126-7.392,88.687
		c-0.188,2.247,0.354,3.685,2.841,3.685c11.572,0.014,23.148,0.004,34.988,0.004c3.759-22.18,6.768-44.405,11.927-66.22
		C145.699,103.71,146.045,103.729,146.391,103.745z M163.484,65.044c1.536-12.135-2.604-21.433-11.594-26.455
		c-8.141-4.546-18.157-3.773-25.476,1.963c-7.267,5.691-10.866,16.052-8.466,24.492C133.066,65.044,148.203,65.044,163.484,65.044z
		 M187.018,144.257c16.188-0.551,26.738-11.976,28.107-27.913c0.097-1.135-1.21-2.938-2.322-3.474
		c-0.994-0.476-3.086-0.074-3.852,0.737c-0.846,0.896-0.869,2.688-0.999,4.109c-0.098,1.086,0.475,2.267,0.264,3.307
		c-2.035,10.009-11.125,17.291-21.396,17.252c-10.32-0.042-19.593-7.602-21.508-17.617c-0.15-0.782-0.067-1.761,0.288-2.456
		c0.882-1.722,0.896-3.456-0.701-4.396c-1.244-0.734-3.469-1.305-4.402-0.682c-1.109,0.75-1.616,2.821-1.796,4.383
		c-0.158,1.37,0.509,2.831,0.794,4.256C162.126,134.861,173.662,144.286,187.018,144.257z"/>
</g>
</svg>
