<?xml version="1.0" encoding="utf-8"?>
<!-- Generator: Adobe Illustrator 16.0.0, SVG Export Plug-In . SVG Version: 6.00 Build 0)  -->
<!DOCTYPE svg PUBLIC "-//W3C//DTD SVG 1.1//EN" "http://www.w3.org/Graphics/SVG/1.1/DTD/svg11.dtd">
<svg version="1.1" id="Layer_1" xmlns="http://www.w3.org/2000/svg" xmlns:xlink="http://www.w3.org/1999/xlink" x="0px" y="0px"
	 width="318.299px" height="225.061px" viewBox="0 0 318.299 225.061" enable-background="new 0 0 318.299 225.061"
	 xml:space="preserve">
<g>
	<path fill-rule="evenodd" clip-rule="evenodd" fill="#FFFFFF" d="M125.99,64.82c3.533-28.292,14.422-40.877,34.33-40.483
		c20.143,0.4,31.204,13.417,33.677,40.521c8.484,0,17.093,0.301,25.667-0.104c6.123-0.284,8.595,1.579,8.56,8.091
		c-0.226,39.872-0.229,79.744-0.005,119.613c0.035,6.418-2.26,8.305-8.437,8.271c-40.1-0.204-80.2-0.201-120.299-0.051
		c-5.623,0.021-7.705-1.85-7.684-7.557c0.155-40.329,0.159-80.659-0.008-120.989c-0.025-5.84,2.296-7.593,7.8-7.396
		C108.243,65.048,116.913,64.82,125.99,64.82z M98.883,193.721c41.165,0,81.593,0,122.089,0c0-40.968,0-81.428,0-122.376
		c-9.237,0-18.056,0-28.436,0c1.249,5.063,2.72,9.246,3.174,13.537c0.272,2.578-0.247,6.138-1.89,7.736
		c-1.322,1.286-5.864,1.316-7.171,0.044c-1.661-1.609-2.215-5.176-1.955-7.767c0.424-4.234,1.895-8.365,3.063-13.103
		c-19.153,0-36.648,0-55.608,0c1.169,4.768,2.55,8.734,2.994,12.805c0.287,2.618,0.085,6.432-1.521,7.794
		c-1.607,1.359-6.132,1.399-7.725,0.057c-1.601-1.349-1.76-5.176-1.489-7.807c0.434-4.221,1.745-8.352,2.771-12.893
		c-10.482,0-19.262,0-28.296,0C98.883,112.65,98.883,152.93,98.883,193.721z M186.478,64.53
		c1.297-15.271-3.047-25.033-13.502-30.536c-10.031-5.276-19.889-4.648-29.063,2.003c-9.067,6.575-12.607,17.316-9.77,28.533
		C151.422,64.53,168.735,64.53,186.478,64.53z"/>
</g>
</svg>
