<?xml version="1.0" encoding="utf-8"?>
<!-- Generator: Adobe Illustrator 16.0.0, SVG Export Plug-In . SVG Version: 6.00 Build 0)  -->
<!DOCTYPE svg PUBLIC "-//W3C//DTD SVG 1.1//EN" "http://www.w3.org/Graphics/SVG/1.1/DTD/svg11.dtd">
<svg version="1.1" id="Layer_1" xmlns="http://www.w3.org/2000/svg" xmlns:xlink="http://www.w3.org/1999/xlink" x="0px" y="0px"
	 width="318.299px" height="225.061px" viewBox="0 0 318.299 225.061" enable-background="new 0 0 318.299 225.061"
	 xml:space="preserve">
<g>
	<path fill-rule="evenodd" clip-rule="evenodd" fill="#464855" d="M117.645,43.206c1.069-7.313-2.259-17.35,8.704-17.321
		c10.975,0.033,7.459,10.129,8.563,17.002c16.95,0,33.746,0,50.714,0c1.141-6.825-2.417-16.954,8.543-17.002
		c10.973-0.049,7.686,9.959,8.722,17.321c2.57,0,5.08-0.04,7.588,0C225.937,43.45,236.66,54.436,236.69,70.4
		c0.081,34.544,0.075,69.079,0.013,103.623c-0.038,15.967-10.871,27.209-26.17,27.243c-33.49,0.06-66.99,0.06-100.491,0
		c-15.309-0.007-26.159-11.276-26.19-27.208c-0.062-34.375-0.055-68.77-0.006-103.154c0.023-16.542,10.643-27.517,26.648-27.698
		C112.731,43.191,114.972,43.206,117.645,43.206z M101.289,122.462c-0.16,0.695-0.354,1.123-0.354,1.552
		c-0.013,17.041-0.073,34.078,0.025,51.123c0.017,5.391,3.417,8.75,9.105,8.761c33.484,0.087,66.983,0.099,100.468,0
		c6.054-0.034,9.063-3.49,9.093-9.765c0.067-9.848,0.024-19.701,0.024-29.539c0-7.301,0-14.586,0-22.132
		C179.996,122.462,140.82,122.462,101.289,122.462z M185.948,60.809c-17.492,0-34.166,0-51.335,0c0,2.918,0.061,5.525-0.007,8.141
		c-0.122,5.416-3.442,9.178-8.154,9.288c-4.802,0.122-8.349-3.794-8.471-9.474c-0.06-2.6-0.018-5.199-0.018-8.154
		c-3.558,0-6.579-0.305-9.517,0.088c-3.922,0.488-7.212,2.867-7.329,7.076c-0.348,12.123-0.12,24.281-0.12,36.635
		c39.639,0,78.908,0,118.56,0c0-12.354,0.173-24.5-0.108-36.619c-0.091-3.785-2.937-6.325-6.458-6.859
		c-3.313-0.538-6.749-0.121-10.453-0.121c0,3.441,0.151,6.415-0.031,9.361c-0.288,4.651-4.091,8.176-8.399,8.067
		c-4.393-0.097-7.935-3.64-8.142-8.353C185.844,66.957,185.948,64.031,185.948,60.809z"/>
	<path fill-rule="evenodd" clip-rule="evenodd" fill="#464855" d="M177.355,140.027c5.571,0,11.144-0.085,16.729,0.012
		c5.029,0.085,8.373,3.48,8.477,8.363c0.116,5.078-3.258,8.762-8.471,8.836c-11.146,0.109-22.302,0.1-33.453,0
		c-5.242-0.034-8.814-3.697-8.807-8.605c0-4.931,3.571-8.509,8.794-8.594C166.198,139.967,171.77,140.027,177.355,140.027z"/>
	<path fill-rule="evenodd" clip-rule="evenodd" fill="#464855" d="M126.458,140.027c4.688,0.072,8.167,3.738,8.147,8.643
		c-0.017,4.871-3.521,8.546-8.213,8.582c-4.884,0.033-8.534-3.822-8.405-8.889C118.11,143.506,121.712,139.967,126.458,140.027z"/>
</g>
</svg>
