<?xml version="1.0" encoding="utf-8"?>
<!-- Generator: Adobe Illustrator 16.0.0, SVG Export Plug-In . SVG Version: 6.00 Build 0)  -->
<!DOCTYPE svg PUBLIC "-//W3C//DTD SVG 1.1//EN" "http://www.w3.org/Graphics/SVG/1.1/DTD/svg11.dtd">
<svg version="1.1" id="Layer_1" xmlns="http://www.w3.org/2000/svg" xmlns:xlink="http://www.w3.org/1999/xlink" x="0px" y="0px"
	 width="318.3px" height="225.061px" viewBox="0 0 318.3 225.061" enable-background="new 0 0 318.3 225.061" xml:space="preserve">
<g>
	<path fill="#464855" stroke="#464855" stroke-width="5" stroke-miterlimit="10" d="M195.186,119.267
		c2.859-0.399,5.377-0.941,7.916-1.072c7.264-0.374,11.245,3.662,10.77,10.899c-0.598,9.131-5.636,15.512-13.036,20.256
		c-5.523,3.542-11.71,5.268-18.153,6.296c-1.415,0.226-2.96,1.004-4.003,1.996c-7.172,6.835-15.703,10.62-25.497,11.557
		c-12.82,1.227-24.777-0.977-34.901-9.552c-7.695-6.52-12.588-14.981-15.203-24.543c-1.907-6.979-2.885-14.23-3.967-21.406
		c-0.57-3.783,1.49-5.789,5.288-5.791c28.631-0.015,57.261-0.014,85.892-0.002c3.962,0.002,5.485,1.719,5.238,5.754
		C195.418,115.46,195.309,117.263,195.186,119.267z M103.868,112.933c0.665,10.645,2.597,20.635,7.353,29.938
		c6.285,12.295,16.127,19.565,29.933,21.44c19.432,2.637,35.234-6.001,43.287-23.83c3.304-7.309,5.077-15.013,5.899-22.957
		c0.155-1.511,0.216-3.031,0.322-4.592C161.569,112.933,132.895,112.933,103.868,112.933z M184.62,150.359
		c8.863-1.968,16.402-5.014,21.114-12.377c1.751-2.736,2.708-6.193,3.233-9.45c0.613-3.797-1.331-5.721-5.134-5.461
		c-2.852,0.193-5.671,0.986-8.467,1.667c-0.557,0.136-1.246,0.908-1.363,1.489C192.328,134.561,189.542,142.465,184.62,150.359z"/>
	<path fill="#464855" stroke="#464855" stroke-width="5" stroke-miterlimit="10" d="M147.616,181.471
		c11.244-0.001,22.488-0.004,33.732,0.005c0.821,0,1.839-0.196,2.418,0.202c0.767,0.528,1.593,1.533,1.636,2.373
		c0.036,0.692-0.911,1.624-1.648,2.104c-0.537,0.354-1.441,0.183-2.182,0.183c-22.9,0.008-45.803,0.007-68.703,0.005
		c-0.578,0-1.337,0.199-1.698-0.086c-0.822-0.656-2.002-1.557-2-2.355c0.003-0.795,1.166-1.747,2.028-2.314
		c0.527-0.347,1.446-0.112,2.189-0.112C124.798,181.472,136.208,181.473,147.616,181.471z"/>
	<path fill="#464855" stroke="#464855" stroke-width="5" stroke-miterlimit="10" d="M129.362,82.744
		c0.389-8.397,3.002-15.791,9.663-21.276c6.175-5.086,8.571-11.733,8.624-19.489c0.014-1.912-0.423-4.506,2.574-4.375
		c2.955,0.131,2.309,2.711,2.278,4.606c-0.15,9.021-2.923,16.883-10.145,22.781c-5.441,4.445-7.62,10.439-7.992,17.25
		c-0.067,1.238-0.077,2.479-0.131,3.72c-0.069,1.54-0.912,2.817-2.382,2.509c-0.963-0.204-1.943-1.503-2.406-2.54
		C129.044,85.035,129.362,83.819,129.362,82.744z"/>
	<path fill="#464855" stroke="#464855" stroke-width="5" stroke-miterlimit="10" d="M165.162,50.92
		c-0.263,8.397-2.811,15.81-9.461,21.31c-5.995,4.955-8.541,11.375-8.681,18.957c-0.018,0.99,0.223,2.134-0.188,2.933
		c-0.49,0.952-1.549,2.215-2.369,2.218c-0.778,0.005-2.223-1.426-2.243-2.252c-0.214-8.569,1.176-16.678,7.693-23.029
		c0.415-0.403,0.792-0.854,1.247-1.206c6.79-5.253,9.256-12.424,9.221-20.714c-0.002-0.577-0.164-1.35,0.134-1.693
		c0.68-0.777,1.566-1.787,2.432-1.849c0.672-0.048,1.457,1.171,2.147,1.873c0.131,0.134,0.064,0.479,0.066,0.725
		C165.166,49.101,165.162,50.01,165.162,50.92z"/>
</g>
<g>
	<path fill="#464855" d="M145.68,145.055c1.222-1.795,2.391-3.516,3.563-5.233c3.736-5.479,7.47-10.959,11.216-16.432
		c0.822-1.199,1.734-1.351,2.953-0.522c0.872,0.592,1.733,1.201,2.579,1.831c1.004,0.747,1.131,1.608,0.414,2.675
		c-2.777,4.128-5.546,8.259-8.342,12.373c-3.148,4.632-6.323,9.248-9.491,13.868c-0.974,1.422-2.736,1.707-3.977,0.518
		c-2.955-2.836-5.848-5.738-8.758-8.619c-0.732-0.725-1.454-1.462-2.148-2.221c-0.742-0.813-0.755-1.601-0.009-2.406
		c0.853-0.92,1.742-1.808,2.653-2.671c0.735-0.695,1.698-0.657,2.424,0.053c2.172,2.127,4.335,4.264,6.502,6.396
		C145.365,144.77,145.476,144.867,145.68,145.055z"/>
</g>
</svg>
