<?xml version="1.0" encoding="utf-8"?>
<!-- Generator: Adobe Illustrator 16.0.0, SVG Export Plug-In . SVG Version: 6.00 Build 0)  -->
<!DOCTYPE svg PUBLIC "-//W3C//DTD SVG 1.1//EN" "http://www.w3.org/Graphics/SVG/1.1/DTD/svg11.dtd">
<svg version="1.1" id="Layer_1" xmlns="http://www.w3.org/2000/svg" xmlns:xlink="http://www.w3.org/1999/xlink" x="0px" y="0px"
	 width="318.3px" height="225.062px" viewBox="0 0 318.3 225.062" enable-background="new 0 0 318.3 225.062" xml:space="preserve">
<g>
	<path fill-rule="evenodd" clip-rule="evenodd" fill="#464855" d="M104.922,26.152c36.295,0,72.598,0,108.901,0
		c13.707,4.215,16.73,13.005,16.562,24.246c-0.358,24.156-0.113,48.317-0.113,72.475c0,18.633-0.047,37.271,0.031,55.9
		c0.022,5.354-0.887,10.566-4.911,14.109c-3.337,2.939-7.674,4.745-11.568,7.052c-36.303,0-72.605,0-108.901,0
		c-0.702-0.268-1.382-0.581-2.092-0.795c-10.08-2.962-15.8-12.396-13.836-23.435c3.474,0,7.04,0.061,10.607-0.016
		c5.283-0.107,8.46-2.929,8.507-7.438c0.045-4.667-3.224-7.544-8.714-7.606c-3.551-0.041-7.102-0.008-10.928-0.008
		c0-2.45,0-4.368,0-6.276c0-1.997,0-3.994,0-5.809c0.84-0.235,1.077-0.361,1.321-0.361c3.085-0.031,6.17-0.035,9.255-0.061
		c5.819-0.046,9.118-2.837,9.065-7.648c-0.063-4.605-3.254-7.273-8.951-7.377c-3.428-0.061-6.865-0.012-10.438-0.012
		c0-4.412,0-8.324,0-12.6c3.68,0,7.132,0.028,10.575-0.007c5.598-0.055,8.813-2.788,8.813-7.441c0-4.629-3.246-7.392-8.82-7.446
		c-3.528-0.033-7.063-0.007-10.484-0.007c0-4.571,0-8.481,0-12.603c3.803,0,7.277,0.074,10.735-0.017
		c5.537-0.148,8.706-3.073,8.569-7.75c-0.138-4.46-3.391-7.202-8.676-7.259c-3.559-0.038-7.118-0.007-10.966-0.007
		c0-2.413,0-4.323,0-6.231c0-2.005,0-4.006,0-5.813c0.81-0.255,1.047-0.393,1.283-0.393c3.215-0.033,6.429-0.033,9.645-0.074
		c5.49-0.075,8.759-2.942,8.714-7.611c-0.047-4.51-3.224-7.328-8.507-7.438c-3.567-0.077-7.133-0.017-10.813-0.017
		c-1.046-7.331,0.275-13.688,5.582-18.323C97.34,29.465,101.364,28.08,104.922,26.152z M157.934,115.184
		c-1.565,0.563-2.796,0.928-3.964,1.439c-9.645,4.276-17.349,10.522-20.686,20.977c-1.42,4.464-0.497,6.503,3.841,8.218
		c9.339,3.688,19.152,4.007,30.247,3.978c-2.871-2.764-4.849-4.898-7.07-6.746c-2.169-1.807-2.749-3.468-1.367-6.201
		c2.031-3.993,3.734-8.189,5.131-12.447c0.673-2.035,0.345-4.406,0.467-6.654c1.466,0,3.963,0,6.468,0.003
		c-2.222,3.094-2.222,3.089-0.68,6.823c1.756,4.27,3.337,8.628,5.346,12.779c1.122,2.313,0.671,3.699-1.131,5.25
		c-2.383,2.031-4.581,4.272-7.338,6.88c8.629,0.844,21.641-0.61,28.438-2.947c5.949-2.05,7.277-4.582,4.986-10.542
		c-2.994-7.782-8.652-13.275-15.854-17.215c-2.642-1.447-5.467-2.559-8.284-3.86c12.629-11.714,11.644-25.529,4.474-32.928
		c-7.102-7.323-18.923-7.8-26.497-0.975C145.104,89.453,146.273,101.809,157.934,115.184z"/>
</g>
</svg>
