<?xml version="1.0" encoding="utf-8"?>
<!-- Generator: Adobe Illustrator 16.0.0, SVG Export Plug-In . SVG Version: 6.00 Build 0)  -->
<!DOCTYPE svg PUBLIC "-//W3C//DTD SVG 1.1//EN" "http://www.w3.org/Graphics/SVG/1.1/DTD/svg11.dtd">
<svg version="1.1" id="Layer_1" xmlns="http://www.w3.org/2000/svg" xmlns:xlink="http://www.w3.org/1999/xlink" x="0px" y="0px"
	 width="318.299px" height="225.061px" viewBox="0 0 318.299 225.061" enable-background="new 0 0 318.299 225.061"
	 xml:space="preserve">
<g>
	<path fill-rule="evenodd" clip-rule="evenodd" fill="#464855" d="M146.571,42.662c3.503,0,7.013,0,10.516,0
		c3.189,0.638,6.419,1.174,9.573,2.009c29.604,7.655,48.819,37.458,44.485,68.712c-1.226,8.872-4.225,17.003-8.61,24.514
		c10.398,10.843,20.62,21.591,30.946,32.203c2.827,2.907,5.377,5.895,6.372,10.008c0,1.585,0,3.185,0,4.77
		c-1.688,5.502-5.188,9.131-10.504,10.871c-1.531,0-3.072,0-4.601,0c-3.138-2.121-6.689-3.832-9.343-6.48
		c-9.995-10.007-19.708-20.311-29.528-30.472c-0.587-0.619-1.252-1.155-1.859-1.71c-0.752,0.473-1.313,0.813-1.88,1.143
		c-34.146,20.394-77.085,2.352-87.839-36.942c-1.005-3.688-1.509-7.522-2.252-11.264c0-3.627,0-7.253,0-10.892
		c0.191-0.607,0.465-1.227,0.547-1.895c3.081-22.878,14.777-39.355,34.928-48.96C133.446,45.453,140.202,44.475,146.571,42.662z
		 M183.04,141.535c14.643-11.676,20.324-35.057,13.271-54.379c-7.403-20.34-26.894-32.984-48.447-31.512
		c-20.136,1.422-37.648,17.345-42.306,38.602c-4.457,20.303,5.06,40.354,17.022,48.545c2.608-10.891,8.955-17.878,20.007-18.744
		c7.286-0.556,14.669-0.338,21.96,0.229c7.028,0.493,12.196,4.658,15.735,10.86C181.416,137.115,182.123,139.382,183.04,141.535z"/>
	<path fill-rule="evenodd" clip-rule="evenodd" fill="#464855" d="M172.271,96.986c-0.063,11.285-8.754,19.992-19.807,19.91
		c-10.687-0.082-19.156-9.13-19.085-20.33c0.067-11.253,8.797-20.023,19.833-19.941C163.868,76.729,172.338,85.786,172.271,96.986z"
		/>
</g>
</svg>
