<?xml version="1.0" encoding="utf-8"?>
<!-- Generator: Adobe Illustrator 16.0.0, SVG Export Plug-In . SVG Version: 6.00 Build 0)  -->
<!DOCTYPE svg PUBLIC "-//W3C//DTD SVG 1.1//EN" "http://www.w3.org/Graphics/SVG/1.1/DTD/svg11.dtd">
<svg version="1.1" id="Layer_1" xmlns="http://www.w3.org/2000/svg" xmlns:xlink="http://www.w3.org/1999/xlink" x="0px" y="0px"
	 width="318.299px" height="225.061px" viewBox="0 0 318.299 225.061" enable-background="new 0 0 318.299 225.061"
	 xml:space="preserve">
<g>
	<path fill-rule="evenodd" clip-rule="evenodd" fill="#FFFFFF" d="M149.301,40.07c12.822,0.587,23.738,4.64,31.21,16.93
		c8.31,13.716,22.21,17.636,36.626,19.566c7.907,1.079,15.701-0.108,23.269-3.081c1.615-0.635,4.158-0.502,5.478,0.431
		c1.078,0.779,1.799,3.598,1.318,5.037c-6.832,20.922-18.486,37.553-39.067,46.005c-7.811,3.202-15.57,3.19-23.504,0.133
		c-7.938-3.069-15.948-6.067-24.119-8.322c-5.821-1.606-11.694-0.348-16.924,3.07c-5.149,3.367-7.221,2.698-9.272-3.155
		c-6.273-17.9-12.5-35.826-18.716-53.75c-3.257-9.388-2.878-10.396,5.577-15.011C129.919,43.127,139.17,40.273,149.301,40.07z"/>
	<path fill-rule="evenodd" clip-rule="evenodd" fill="#FFFFFF" d="M98.218,63.57c4.954,0.18,7.303,3.382,8.83,7.828
		c6.411,18.718,12.928,37.375,19.406,56.078c6.467,18.683,12.949,37.373,19.413,56.053c0.466,1.355,1,2.721,1.28,4.114
		c0.979,4.784-1.227,8.92-5.382,10.382c-4.148,1.451-8.391-0.468-10.251-5.023c-1.637-3.98-2.896-8.106-4.318-12.169
		c-12.061-34.65-24.133-69.279-36.17-103.943C88.537,69.733,91.839,63.715,98.218,63.57z"/>
	<path fill-rule="evenodd" clip-rule="evenodd" fill="#FFFFFF" d="M87.759,24.328c9.332,0.072,16.754,7.865,16.624,17.48
		c-0.127,9.353-7.585,17.037-16.624,17.11c-9.184,0.084-16.814-7.782-16.829-17.349C70.913,31.965,78.437,24.268,87.759,24.328z"/>
</g>
</svg>
