<?xml version="1.0" encoding="utf-8"?>
<!-- Generator: Adobe Illustrator 16.0.0, SVG Export Plug-In . SVG Version: 6.00 Build 0)  -->
<!DOCTYPE svg PUBLIC "-//W3C//DTD SVG 1.1//EN" "http://www.w3.org/Graphics/SVG/1.1/DTD/svg11.dtd">
<svg version="1.1" id="Layer_1" xmlns="http://www.w3.org/2000/svg" xmlns:xlink="http://www.w3.org/1999/xlink" x="0px" y="0px"
	 width="318.3px" height="225.061px" viewBox="0 0 318.3 225.061" enable-background="new 0 0 318.3 225.061" xml:space="preserve">
<g>
	<path fill-rule="evenodd" clip-rule="evenodd" fill="#FFFFFF" d="M92.081,171c0-22.94,0-45.564,0-68.993
		c15.681,0,31.008,0,45.675,0c0.996-1.221,1.579-1.608,1.639-2.061c1.715-13.085,1.703-13.085,15.333-13.098
		c2.98-0.004,5.96-0.004,8.939,0c14.848,0.006,14.848,0.006,17.493,14.787c15.171,0,30.506,0,46.345,0c0,23.438,0,46.069,0,69.364
		C182.726,171,137.898,171,92.081,171z"/>
	<path fill-rule="evenodd" clip-rule="evenodd" fill="#FFFFFF" d="M160.075,59.673c-11.353,0-22.708-0.038-34.062,0.017
		c-5.528,0.032-10.052-1.561-9.787-7.95c0.24-5.833,4.604-7.174,9.792-7.155c22.707,0.075,45.416,0.068,68.122,0.01
		c5.292-0.013,9.366,1.673,9.385,7.536c0.018,5.908-4.156,7.571-9.388,7.552C182.785,59.647,171.429,59.67,160.075,59.673z"/>
	<path fill-rule="evenodd" clip-rule="evenodd" fill="#FFFFFF" d="M71.753,136.689c-0.001-11.396,0.052-22.792-0.026-34.185
		c-0.033-5.333,1.809-9.416,7.614-9.425c5.903-0.01,7.528,4.254,7.519,9.497c-0.045,22.789-0.06,45.581-0.027,68.373
		c0.006,5.278-1.712,9.494-7.586,9.425c-5.78-0.058-7.577-4.15-7.523-9.5C71.835,159.479,71.757,148.086,71.753,136.689z"/>
	<path fill-rule="evenodd" clip-rule="evenodd" fill="#FFFFFF" d="M232.946,136.541c0-11.121,0.083-22.246-0.036-33.367
		c-0.061-5.546,1.361-10.11,7.752-10.056c5.897,0.055,7.404,4.371,7.394,9.606c-0.052,22.789-0.026,45.578,0.001,68.366
		c0.007,5.316-1.917,9.384-7.764,9.254c-5.887-0.123-7.432-4.39-7.398-9.623c0.072-11.393,0.023-22.792,0.023-34.182
		C232.93,136.541,232.937,136.541,232.946,136.541z"/>
	<path fill-rule="evenodd" clip-rule="evenodd" fill="#FFFFFF" d="M167.041,81.525c-4.73,0-9.201,0-14.361,0
		c0-5.188,0-10.378,0-16.292c4.369,0,9.021,0,14.361,0C167.041,70.126,167.041,75.33,167.041,81.525z"/>
</g>
</svg>
