<?xml version="1.0" encoding="utf-8"?>
<!-- Generator: Adobe Illustrator 16.0.0, SVG Export Plug-In . SVG Version: 6.00 Build 0)  -->
<!DOCTYPE svg PUBLIC "-//W3C//DTD SVG 1.1//EN" "http://www.w3.org/Graphics/SVG/1.1/DTD/svg11.dtd">
<svg version="1.1" id="Layer_1" xmlns="http://www.w3.org/2000/svg" xmlns:xlink="http://www.w3.org/1999/xlink" x="0px" y="0px"
	 width="318.299px" height="225.061px" viewBox="0 0 318.299 225.061" enable-background="new 0 0 318.299 225.061"
	 xml:space="preserve">
<g>
	<path fill-rule="evenodd" clip-rule="evenodd" fill="#FFFFFF" d="M113.925,116.187c-28.626-22.529-23.346-59.296-5.554-76.307
		c19.048-18.175,48.725-17.547,66.611,1.642c17.301,18.525,19.913,53.359-7.164,74.576c3.74,2.141,7.568,4.037,11.063,6.436
		c22.756,15.775,33.788,37.865,32.706,66.262c-0.198,5.182-3.103,7.8-7.265,7.324c-3.854-0.443-5.945-3.634-5.618-8.547
		c2.043-29.981-20.12-58.228-48.943-62.361c-34.917-4.981-65.153,20.889-66.801,57.215c-0.105,2.365,0.361,4.729,0.339,7.065
		c-0.043,3.95-2.575,6.628-6.185,6.813c-3.654,0.2-6.456-2.105-6.705-6.112c-1.799-29.164,9.512-51.635,32.751-67.785
		C106.547,120.031,110.313,118.272,113.925,116.187z M106.845,75.228c0.087,19.619,15.405,35.595,34.144,35.559
		c18.529-0.059,34.242-16.313,34.068-35.281c-0.182-19.663-15.445-35.311-34.399-35.243C122.208,40.32,106.77,56.285,106.845,75.228
		z"/>
	<path fill-rule="evenodd" clip-rule="evenodd" fill="#FFFFFF" d="M210.543,114.732c4.628,3.002,9.403,5.555,13.588,8.93
		c14.875,11.936,22.355,27.899,23.084,47.306c0.179,4.729-2.422,7.79-6.399,7.896c-4.262,0.058-6.781-2.62-6.903-7.859
		c-0.286-11.901-3.722-22.634-11.066-31.844c-7.48-9.374-17.063-14.927-28.763-16.442c-5.435-0.697-8.303-3.284-8.53-7.602
		c-0.228-4.516,2.043-6.975,7.655-8.37c11.655-2.902,19.979-12.901,20.487-24.673c0.528-12.215-6.679-22.88-18.194-26.883
		c-5.233-1.84-7.271-5.146-5.82-9.537c1.263-3.818,5.234-5.368,10.082-3.657c14.188,4.949,23.385,14.985,26.64,30.075
		c3.371,15.613-1.188,28.991-12.64,39.785C212.693,112.873,211.564,113.813,210.543,114.732z"/>
</g>
</svg>
