<?xml version="1.0" encoding="utf-8"?>
<!-- Generator: Adobe Illustrator 16.0.0, SVG Export Plug-In . SVG Version: 6.00 Build 0)  -->
<!DOCTYPE svg PUBLIC "-//W3C//DTD SVG 1.1//EN" "http://www.w3.org/Graphics/SVG/1.1/DTD/svg11.dtd">
<svg version="1.1" id="Layer_1" xmlns="http://www.w3.org/2000/svg" xmlns:xlink="http://www.w3.org/1999/xlink" x="0px" y="0px"
	 width="318.3px" height="225.061px" viewBox="0 0 318.3 225.061" enable-background="new 0 0 318.3 225.061" xml:space="preserve">
<g>
	<path fill-rule="evenodd" clip-rule="evenodd" fill="#FFFFFF" d="M123.405,116.156c-1.851,0-3.922-0.522-5.499,0.143
		c-1.717,0.712-1.283,3.177-1.963,4.823c-3.909,9.457-14.355,15.176-24.286,13.173c-10.544-2.132-17.789-10.876-17.762-21.434
		c0.026-11.104,8.145-20.459,18.812-21.687c11.592-1.323,21.482,5.505,24.172,16.752c0.288,1.228,0.766,1.623,2.033,1.593
		c3.063-0.104,6.13-0.072,9.196-0.009c1.083,0.023,1.574-0.23,1.749-1.402c2.604-17.615,14.698-29.892,32.298-32.49
		c7.972-1.163,15.643,0.254,22.733,4.199c1.248,0.696,1.895,0.617,2.804-0.499c2.528-3.121,5.164-6.179,7.845-9.157
		c0.885-0.998,0.914-1.584,0.074-2.685c-12.146-15.992-3.774-38.366,15.868-42.524c17.461-3.7,33.845,11.437,31.625,29.203
		c-2.423,19.389-23.229,29.717-40.102,19.888c-0.8-0.468-1.319-0.729-2.061,0.166c-2.688,3.247-5.445,6.439-8.228,9.608
		c-0.667,0.752-0.511,1.133,0.17,1.805c16.086,15.937,15.599,40.086-1.133,55.389c-0.953,0.879-0.889,1.354-0.137,2.272
		c3.752,4.603,7.459,9.244,11.126,13.917c0.673,0.863,1.131,0.975,2.159,0.476c8.057-3.881,16.017-3.62,23.441,1.418
		c7.506,5.076,10.702,12.466,10.001,21.44c-0.883,11.223-10.649,20.221-22.229,20.656c-11.342,0.42-21.627-8-23.385-19.08
		c-1.091-6.892,0.461-13.054,4.82-18.479c0.646-0.809,0.663-1.291,0.015-2.092c-3.944-4.862-7.869-9.741-11.707-14.684
		c-0.833-1.07-1.467-0.761-2.396-0.317c-7.152,3.478-14.698,4.666-22.517,3.279c-6.356-1.125-12.123-3.723-17.261-7.73
		c-8.029-6.265-12.431-14.526-13.797-24.498c-0.16-1.165-0.577-1.514-1.687-1.458c-1.595,0.079-3.197,0.016-4.792,0.016
		C123.405,116.147,123.405,116.147,123.405,116.156z M137.772,112.656c-0.111,15.776,12.592,29.479,29.088,29.456
		c17.064-0.033,29.232-13.648,29.397-28.649c0.176-16.648-12.738-29.885-29.114-29.979
		C151.065,83.396,137.88,96.481,137.772,112.656z"/>
	<path fill-rule="evenodd" clip-rule="evenodd" fill="#FFFFFF" d="M122.368,147.481c0.034,0.031,0.091,0.071,0.091,0.104
		c-0.009,0.103-0.034,0.221-0.054,0.332c-0.028-0.023-0.078-0.055-0.078-0.087C122.331,147.71,122.351,147.6,122.368,147.481z"/>
	<path fill-rule="evenodd" clip-rule="evenodd" fill="#FFFFFF" d="M167.124,138.309c-7.764-0.206-14.108-3.002-19.172-8.618
		c-1.745-1.939-2.02-4.07-0.871-6.415c2.458-5.021,6.947-7.548,12.507-6.859c1.873,0.229,3.351,1.553,4.808,2.622
		c1.869,1.378,3.413,1.434,5.235-0.032c2.861-2.288,6.039-3.35,9.776-2.28c4.652,1.322,7.987,5.33,8.272,10.122
		c0.049,0.823-0.342,1.314-0.778,1.854C181.737,135.03,175.004,138.095,167.124,138.309z"/>
	<path fill-rule="evenodd" clip-rule="evenodd" fill="#FFFFFF" d="M167.018,112.25c-6.063-0.023-10.776-4.744-10.755-10.788
		c0.017-6.043,4.755-10.771,10.79-10.763c6.031,0.015,10.798,4.791,10.764,10.803C177.783,107.562,173.055,112.266,167.018,112.25z"
		/>
</g>
</svg>
