<?xml version="1.0" encoding="utf-8"?>
<!-- Generator: Adobe Illustrator 16.0.0, SVG Export Plug-In . SVG Version: 6.00 Build 0)  -->
<!DOCTYPE svg PUBLIC "-//W3C//DTD SVG 1.1//EN" "http://www.w3.org/Graphics/SVG/1.1/DTD/svg11.dtd">
<svg version="1.1" id="Layer_1" xmlns="http://www.w3.org/2000/svg" xmlns:xlink="http://www.w3.org/1999/xlink" x="0px" y="0px"
	 width="318.299px" height="225.061px" viewBox="0 0 318.299 225.061" enable-background="new 0 0 318.299 225.061"
	 xml:space="preserve">
<g>
	<path fill="none" stroke="#464855" stroke-width="10" stroke-miterlimit="10" d="M88.072,179.828
		c0,8.659,7.023,15.685,15.682,15.685h114.992c8.659,0,15.682-7.025,15.682-15.685V90.973H88.072V179.828z"/>
	<path fill="#464855" d="M221.387,44.836h-16.399V28.434c0-3.006-2.462-5.466-5.469-5.466h-10.933c-3.009,0-5.47,2.46-5.47,5.466
		v16.402h-43.734V28.434c0-3.006-2.461-5.466-5.47-5.466H122.98c-3.007,0-5.468,2.46-5.468,5.466v16.402h-16.4
		c-9.055,0-16.402,7.346-16.402,16.399v16.406h153.08V61.235C237.79,52.182,230.443,44.836,221.387,44.836z"/>
	<path fill="#464855" d="M184.478,128.313c0-2.203,1.798-3.999,3.996-3.999h24c2.198,0,4.001,1.796,4.001,3.999v23.996
		c0,2.204-1.803,3.998-4.001,3.998h-24c-2.198,0-3.996-1.794-3.996-3.998V128.313z"/>
	<path fill="#464855" d="M146.059,128.313c0-2.203,1.803-3.999,4.002-3.999h23.998c2.199,0,3.999,1.796,3.999,3.999v23.996
		c0,2.204-1.8,3.998-3.999,3.998h-23.998c-2.199,0-4.002-1.794-4.002-3.998V128.313z"/>
	<path fill="#464855" d="M107.645,128.313c0-2.203,1.801-3.999,4.001-3.999h24c2.197,0,3.997,1.796,3.997,3.999v23.996
		c0,2.204-1.8,3.998-3.997,3.998h-24c-2.2,0-4.001-1.794-4.001-3.998V128.313z"/>
</g>
</svg>
