<?xml version="1.0" encoding="utf-8"?>
<!-- Generator: Adobe Illustrator 16.0.0, SVG Export Plug-In . SVG Version: 6.00 Build 0)  -->
<!DOCTYPE svg PUBLIC "-//W3C//DTD SVG 1.1//EN" "http://www.w3.org/Graphics/SVG/1.1/DTD/svg11.dtd">
<svg version="1.1" id="Layer_1" xmlns="http://www.w3.org/2000/svg" xmlns:xlink="http://www.w3.org/1999/xlink" x="0px" y="0px"
	 width="318.299px" height="225.061px" viewBox="0 0 318.299 225.061" enable-background="new 0 0 318.299 225.061"
	 xml:space="preserve">
<g>
	<path fill-rule="evenodd" clip-rule="evenodd" fill="#FFFFFF" d="M157.403,24.437c2.632,0.572,5.316,0.938,7.886,1.73
		c20.313,6.242,33.462,19.918,37.611,41.493c4.034,20.907-2.621,38.45-18.382,52.238c-0.746,0.646-1.511,1.292-2.262,1.95
		c-0.082,0.083-0.098,0.25-0.25,0.615c11.266,5.43,20.992,12.997,28.648,23.367c-0.448,0.876-1.017,1.67-1.283,2.514
		c-2.276,7.399-8.333,8.818-13.441,3.051c-7.801-8.754-17.203-14.829-28.313-17.883c-34.51-9.517-67.89,13.643-73.861,51.165
		c-0.959,6.015-4.447,9.317-9.094,7.714c-2.247-0.794-3.905-3.423-5.827-5.201c0-1.555,0-3.088,0-4.639
		c0.254-0.646,0.614-1.325,0.738-2.032c3.248-19.262,11.95-35.333,26.767-47.519c5.05-4.148,10.783-7.401,16.282-11.102
		c-0.568-0.479-1.34-1.073-2.091-1.718c-15.134-12.914-21.889-29.634-19.215-49.582c2.777-20.567,14.207-34.948,32.968-42.63
		c4.059-1.668,8.485-2.398,12.736-3.533C150.489,24.437,153.944,24.437,157.403,24.437z M152.208,39.78
		c-20.32,0.03-36.94,17.289-36.902,38.334c0.031,20.938,16.828,38.365,37.017,38.365c20.47,0,36.98-17.29,36.949-38.68
		C189.231,56.645,172.756,39.749,152.208,39.78z"/>
	<path fill-rule="evenodd" clip-rule="evenodd" fill="#FFFFFF" d="M201.874,200.999c-6.25-6.295-12.643-12.424-18.664-18.896
		c-2.496-2.711-1.787-7.148,0.762-9.714c2.673-2.711,6.941-3.052,9.709-0.314c3.371,3.358,6.378,7.088,10.024,11.217
		c5.181-5.515,9.706-10.34,14.265-15.145c2.939-3.105,5.931-6.128,8.911-9.204c5.714-5.877,9.835-5.482,14.265,1.356
		c0,1.292,0,2.563,0,3.835c-1.298,1.836-2.393,3.846-3.914,5.451c-8.276,8.673-16.651,17.261-25.03,25.848
		c-1.887,1.95-3.919,3.702-5.885,5.566C204.833,200.999,203.343,200.999,201.874,200.999z"/>
</g>
</svg>
