<?xml version="1.0" encoding="utf-8"?>
<!-- Generator: Adobe Illustrator 16.0.0, SVG Export Plug-In . SVG Version: 6.00 Build 0)  -->
<!DOCTYPE svg PUBLIC "-//W3C//DTD SVG 1.1//EN" "http://www.w3.org/Graphics/SVG/1.1/DTD/svg11.dtd">
<svg version="1.1" id="Layer_1" xmlns="http://www.w3.org/2000/svg" xmlns:xlink="http://www.w3.org/1999/xlink" x="0px" y="0px"
	 width="318.299px" height="225.061px" viewBox="0 0 318.299 225.061" enable-background="new 0 0 318.299 225.061"
	 xml:space="preserve">
<g>
	<path fill-rule="evenodd" clip-rule="evenodd" fill="#464855" d="M215.375,25.271c7.112,2.229,12.863,6.105,15.664,13.639
		c4.247,11.455-1.183,24.078-12.188,28.284c-10.621,4.058-22.555-2.046-26.196-13.409c-3.732-11.662,2.354-23.984,13.588-27.589
		c0.799-0.238,1.587-0.616,2.372-0.925C210.872,25.271,213.117,25.271,215.375,25.271z M211.89,63.479
		c8.723,0.091,15.994-7.373,16.022-16.452c0.028-9.076-7.145-16.737-15.762-16.828c-8.558-0.126-15.907,7.465-16.034,16.542
		C195.981,55.763,203.195,63.409,211.89,63.479z"/>
	<path fill-rule="evenodd" clip-rule="evenodd" fill="#464855" d="M191.345,200.28c-9.867-3.81-14.285-9.354-14.319-17.881
		c-0.023-5.17,1.641-9.787,5.465-13.07c2.697-2.33,5.019-4.251,2.32-8.147c1.607-0.595,2.743-0.995,4.11-1.521
		c0.701,1.645,1.349,3.131,1.984,4.615c2.296,0.15,4.578,0.06,6.738,0.561c7.66,1.67,13.152,8.609,13.323,16.511
		c0.212,8.859-4.475,15.774-12.283,18.154c-0.703,0.229-1.394,0.536-2.08,0.778C194.854,200.28,193.093,200.28,191.345,200.28z
		 M207.076,182.433c0.035-7.555-5.723-13.846-12.799-13.949c-7.237-0.09-13.303,6.209-13.336,13.858
		c-0.023,7.375,5.96,13.662,13.073,13.728C201.141,196.095,207.037,189.968,207.076,182.433z"/>
	<path fill-rule="evenodd" clip-rule="evenodd" fill="#464855" d="M198.273,111.997c7.082,1.828,13.959,3.693,20.885,5.306
		c1.042,0.217,2.598-0.308,3.448-1.053c3.561-3.132,7.425-3.749,11.004-1.463c3.184,2.081,4.86,6.175,3.973,9.704
		c-1.062,4.244-4.304,7.124-8.213,7.343c-3.83,0.217-7.231-2.413-8.764-6.597c-0.354-0.962-1.052-2.266-1.818-2.482
		c-7.213-1.989-14.468-3.782-21.646-5.611c-10.039,18.404-22.786,24.67-37.739,18.6c-13.027-5.248-20.601-20.271-17.389-34.436
		c3.304-14.563,16.006-24.316,30.097-23.113C187.63,79.494,196.849,91.304,198.273,111.997z"/>
	<path fill-rule="evenodd" clip-rule="evenodd" fill="#464855" d="M144.77,130.223c-4.02,3.188-7.762,6.138-11.667,9.202
		c2.366,5.144,3.939,10.289,2.91,16.051c-1.99,11.158-10.804,18.714-21.693,18.405c-9.876-0.309-18.675-8.586-19.898-18.748
		c-1.399-11.616,4.928-21.848,15.262-24.821c6.614-1.92,12.64-0.524,18.047,3.603c1.691,1.269,2.67,1.142,4.168-0.104
		c3.103-2.562,6.351-4.985,9.756-7.648C142.626,127.43,143.522,128.608,144.77,130.223z"/>
	<path fill-rule="evenodd" clip-rule="evenodd" fill="#464855" d="M141.259,90.688c-0.806,1.795-1.435,3.157-2.15,4.733
		c-11.272-6.436-22.39-12.826-33.559-19.205c-3.504,3.806-7.549,6.037-12.455,5.635c-8.193-0.709-14.527-8.608-13.541-16.542
		c1.103-8.952,8.042-14.727,16.472-13.696c8.01,0.994,13.44,8.518,12.177,17.354c-0.348,2.413,0.697,3.154,2.326,4.082
		C120.676,78.846,130.804,84.709,141.259,90.688z"/>
	<path fill-rule="evenodd" clip-rule="evenodd" fill="#464855" d="M200.851,67.938c-1.694,2.205-3.042,4-4.511,5.92
		c-1.279-1.051-2.326-1.885-3.515-2.879c1.474-1.955,2.823-3.75,4.338-5.798C198.394,66.108,199.444,66.886,200.851,67.938z"/>
	<path fill-rule="evenodd" clip-rule="evenodd" fill="#464855" d="M186.279,79.805c1.47-1.979,2.814-3.751,4.305-5.761
		c1.246,0.959,2.292,1.771,3.612,2.788c-1.537,2.081-2.932,3.933-4.475,6.015C188.479,81.759,187.481,80.855,186.279,79.805z"/>
	<path fill-rule="evenodd" clip-rule="evenodd" fill="#464855" d="M182.152,138.155c0.813,2.537,1.51,4.709,2.259,7.031
		c-1.36,0.594-2.477,1.051-4.06,1.735c-0.824-2.388-1.595-4.582-2.439-7.03C179.267,139.333,180.517,138.843,182.152,138.155z"/>
	<path fill-rule="evenodd" clip-rule="evenodd" fill="#464855" d="M183.77,157.647c-0.846-2.606-1.533-4.743-2.309-7.191
		c1.456-0.525,2.681-0.994,4.156-1.555c0.777,2.333,1.498,4.435,2.31,6.85C186.542,156.4,185.372,156.927,183.77,157.647z"/>
</g>
</svg>
