<?xml version="1.0" encoding="utf-8"?>
<!-- Generator: Adobe Illustrator 16.0.0, SVG Export Plug-In . SVG Version: 6.00 Build 0)  -->
<!DOCTYPE svg PUBLIC "-//W3C//DTD SVG 1.1//EN" "http://www.w3.org/Graphics/SVG/1.1/DTD/svg11.dtd">
<svg version="1.1" id="Layer_1" xmlns="http://www.w3.org/2000/svg" xmlns:xlink="http://www.w3.org/1999/xlink" x="0px" y="0px"
	 width="318.3px" height="225.062px" viewBox="0 0 318.3 225.062" enable-background="new 0 0 318.3 225.062" xml:space="preserve">
<g>
	<path fill-rule="evenodd" clip-rule="evenodd" fill="#464855" d="M193.6,160.305c2.231,0,4.017-0.1,5.787,0.02
		c5.169,0.34,9.017,0.126,11.568-6.234c3.253-8.116,13.298-11.281,21.755-8.752c8.464,2.535,14.297,10.65,13.835,19.252
		c-0.486,9.047-7.016,16.566-15.758,18.149c-8.912,1.62-17.865-2.873-21.062-11.302c-1.343-3.541-3.075-4.5-6.553-4.222
		c-3.821,0.306-7.686-0.039-11.524,0.116c-3.921,0.155-5.341-1.612-5.308-5.446c0.12-13.862,0.055-27.727,0.062-41.592
		c0-1.488,0-2.979,0-4.796c-7.786,0-15.239,0-22.89,0c0,6.099-0.024,12.219,0.006,18.334c0.032,6.922-2.282,13.614-0.273,20.85
		c1.449,5.226,0.321,11.177,0.252,16.806c-0.09,7.28-4.24,11.629-11.505,11.657c-23.196,0.088-46.397,0.085-69.594,0.002
		c-7.302-0.028-11.54-4.287-11.686-11.513c-0.122-5.904-0.737-11.923,0.168-17.678c0.873-5.56,1.044-10.703,0.032-16.314
		c-1.054-5.851-0.906-12.138-0.023-18.046c0.792-5.297,1.051-10.162,0.054-15.539c-1.108-5.971-0.959-12.41-0.054-18.453
		c0.796-5.289,1.035-10.126,0.059-15.493c-1.112-6.112-0.404-12.584-0.207-18.896c0.205-6.521,4.472-10.857,11.033-10.893
		c23.607-0.123,47.22-0.133,70.831,0.01c6.531,0.041,10.698,4.513,10.847,11.048c0.129,5.762,0.993,11.731-0.19,17.24
		c-1.445,6.731-0.248,13.061,0.137,19.603c0.385,6.525,0.084,13.092,0.084,19.854c7.407,0,14.775,0,22.63,0
		c0.083-1.484,0.239-2.932,0.24-4.383c0.01-13.865-0.018-27.73-0.011-41.592c0.005-5.242,0.734-5.964,5.943-5.986
		c3.843-0.019,7.697-0.17,11.525,0.076c3,0.191,4.507-0.57,5.649-3.698c3.173-8.681,12.18-13.451,21.163-11.812
		c9.003,1.651,15.592,9.301,15.897,18.46c0.294,8.826-5.78,16.85-14.513,19.166c-9.536,2.53-19.412-2.547-22.85-12.078
		c-0.858-2.376-1.855-3.242-4.32-3.108c-3.662,0.191-7.342,0.054-11.258,0.054c0,15.114,0,29.856,0,45.093
		c4.386,0,8.614,0.218,12.795-0.153c1.033-0.089,2.223-1.938,2.786-3.226c2.989-6.818,7.955-11.164,15.375-12.18
		c7.557-1.028,13.855,1.581,18.315,7.822c4.555,6.373,5.053,13.315,1.371,20.202c-3.758,7.032-9.894,10.585-17.91,10.194
		c-8.004-0.397-13.852-4.469-16.748-11.904c-1.234-3.166-2.747-4.145-5.925-3.867c-3.238,0.275-6.521,0.058-10.041,0.058
		C193.6,130.348,193.6,145.086,193.6,160.305z M116.981,81.29c0,0,0,0.009,0,0.013c-11.383,0-22.764,0.043-34.145-0.029
		c-3.405-0.016-5.11,1.334-5.064,4.86c0.072,5.758,0.077,11.518,0,17.274c-0.049,3.557,1.748,4.883,5.088,4.883
		c22.762-0.025,45.525-0.045,68.287,0.018c3.896,0.012,5.414-1.738,5.314-5.521c-0.139-5.209-0.006-10.425-0.046-15.635
		c-0.038-5.074-0.85-5.85-6.112-5.859C139.194,81.273,128.086,81.29,116.981,81.29z M116.927,142.177c0,0.01,0,0.012,0,0.019
		c11.378,0,22.758-0.05,34.134,0.032c3.542,0.021,5.404-1.266,5.337-5.034c-0.1-5.757-0.058-11.517-0.006-17.272
		c0.029-3.306-1.628-4.72-4.81-4.714c-23.031,0.007-46.064,0.004-69.093,0.004c-3.215,0.003-4.754,1.553-4.715,4.824
		c0.064,5.617,0.123,11.239-0.021,16.857c-0.103,3.916,1.628,5.366,5.448,5.328C94.443,142.104,105.684,142.177,116.927,142.177z
		 M116.96,176.088c0,0.007,0,0.013,0,0.02c11.381,0,22.765-0.061,34.145,0.034c3.57,0.028,5.396-1.296,5.336-5.032
		c-0.089-5.759-0.068-11.524-0.016-17.279c0.028-3.055-1.364-4.646-4.425-4.647c-23.173-0.017-46.349-0.011-69.526-0.017
		c-3.208,0-4.755,1.526-4.705,4.822c0.085,5.48,0.021,10.968,0.043,16.452c0.018,4.885,0.786,5.639,5.823,5.646
		C94.743,176.099,105.853,176.088,116.96,176.088z M117.444,47.378c0,0.004,0,0.006,0,0.016c-11.517,0-23.034,0.063-34.554-0.034
		c-3.704-0.037-5.208,1.509-5.119,5.182c0.136,5.48,0.126,10.968-0.018,16.451c-0.098,3.642,1.405,5.306,5.073,5.302
		c22.9-0.044,45.799-0.054,68.696-0.02c3.476,0.011,4.979-1.521,4.918-4.984c-0.1-5.349,0.007-10.694-0.022-16.043
		c-0.03-5.146-0.748-5.854-6.064-5.863C139.384,47.359,128.415,47.378,117.444,47.378z M227.109,124.018
		c6.765,0.043,12.314-5.496,12.309-12.295c-0.004-6.773-5.596-12.318-12.35-12.251c-6.553,0.063-12.045,5.521-12.165,12.088
		C214.781,118.245,220.391,123.973,227.109,124.018z M239.417,163.655c-0.089-6.729-5.868-12.28-12.544-12.063
		c-6.572,0.212-12.002,5.79-11.971,12.291c0.034,6.766,5.62,12.258,12.415,12.211C234.128,176.045,239.507,170.516,239.417,163.655z
		 M239.418,59.83c0.089-6.826-5.335-12.373-12.137-12.407c-6.736-0.039-12.398,5.572-12.377,12.265
		c0.019,6.516,5.465,12.068,12.016,12.25C233.615,72.116,239.33,66.585,239.418,59.83z"/>
</g>
</svg>
