<?xml version="1.0" encoding="utf-8"?>
<!-- Generator: Adobe Illustrator 16.0.0, SVG Export Plug-In . SVG Version: 6.00 Build 0)  -->
<!DOCTYPE svg PUBLIC "-//W3C//DTD SVG 1.1//EN" "http://www.w3.org/Graphics/SVG/1.1/DTD/svg11.dtd">
<svg version="1.1" id="Layer_1" xmlns="http://www.w3.org/2000/svg" xmlns:xlink="http://www.w3.org/1999/xlink" x="0px" y="0px"
	 width="318.299px" height="225.061px" viewBox="0 0 318.299 225.061" enable-background="new 0 0 318.299 225.061"
	 xml:space="preserve">
<g>
	<path fill-rule="evenodd" clip-rule="evenodd" fill="#FFFFFF" d="M202.231,201.521c-6.914-1.958-13.153-4.949-17.598-11.219
		c-10.948-15.413-4.178-37.304,13.479-42.96c2.132-0.687,3.052-1.47,3.024-3.938c-0.228-19.246-0.119-38.504-0.572-57.727
		c-0.104-4.863-1.344-9.857-2.926-14.48c-2.273-6.646-7.315-10.237-14.208-10.347c-10.174-0.151-20.356-0.032-30.806-0.032
		c4.863,5.168,9.367,10.042,13.96,14.818c2.055,2.153,3.198,4.428,1.637,7.342c-1.866,3.45-5.723,3.678-8.926,0.438
		c-5.953-6.07-11.81-12.219-17.717-18.322c-0.865-0.881-1.785-1.741-2.975-2.881c-2.548,8.682-7.42,15.361-15.378,18.025
		c-5.266,1.785-5.673,4.657-5.616,9.324c0.208,17.538,0.19,35.085-0.021,52.613c-0.037,3.361,1.23,4.338,3.972,5.275
		c11.248,3.926,18.053,14.514,17.814,27.187c-0.218,11.326-8.122,21.935-18.882,25.339c-13.441,4.23-28.154-3.504-32.791-17.21
		c-4.739-14.035,1.687-29.104,15.227-34.347c3.536-1.394,4.084-3.114,4.062-6.463c-0.113-18.582-0.086-37.174-0.021-55.757
		c0.005-2.327-0.328-3.612-2.86-4.514c-11.929-4.243-19.225-16.353-17.882-29.048c1.306-12.307,10.668-22.227,22.896-24.252
		c11.853-1.98,23.466,4.832,28.439,16.657c0.342,0.825,0.702,1.642,1.724,3.97c7.671-8.464,14.834-16.35,21.994-24.238
		c1.011,0,2.018,0,3.029,0c5.054,3.244,5.413,6.148,1.24,10.575c-2.817,3.002-5.716,5.919-8.561,8.899
		c-1.601,1.665-3.168,3.362-5.295,5.634c10.646,0,20.247-0.042,29.843,0.013c13.121,0.076,22.967,7.082,26.616,20.14
		c1.9,6.829,2.748,14.129,2.911,21.234c0.414,17.146,0.191,34.292,0.098,51.437c-0.021,2.688,0.565,3.992,3.278,5.027
		c16.98,6.517,23.354,26.194,13.606,41.374c-4.542,7.062-11.194,10.66-18.989,12.413
		C206.789,201.521,204.51,201.521,202.231,201.521z M189.393,173.364c-0.055,9.237,7.486,17.113,16.334,17.025
		c8.667-0.074,16.167-7.931,16.12-16.895c-0.055-9.216-7.279-16.689-16.178-16.711C196.752,156.763,189.447,164.194,189.393,173.364
		z M128.664,54.964c-0.048-9.193-7.291-16.742-16.107-16.785c-8.828-0.045-16.235,7.516-16.286,16.601
		c-0.043,9.229,7.54,17.083,16.385,17.017C121.562,71.72,128.718,64.179,128.664,54.964z M128.664,173.627
		c0-9.227-7.462-16.864-16.465-16.843c-8.552,0.021-15.808,7.541-15.916,16.515c-0.125,9.139,7.462,17.104,16.265,17.091
		C121.277,190.39,128.664,182.689,128.664,173.627z"/>
</g>
<rect x="70.615" y="23.646" fill="none" stroke="#231F20" stroke-miterlimit="10" width="177.333" height="177.334"/>
</svg>
