<?xml version="1.0" encoding="utf-8"?>
<!-- Generator: Adobe Illustrator 16.0.0, SVG Export Plug-In . SVG Version: 6.00 Build 0)  -->
<!DOCTYPE svg PUBLIC "-//W3C//DTD SVG 1.1//EN" "http://www.w3.org/Graphics/SVG/1.1/DTD/svg11.dtd">
<svg version="1.1" id="Layer_1" xmlns="http://www.w3.org/2000/svg" xmlns:xlink="http://www.w3.org/1999/xlink" x="0px" y="0px"
	 width="318.3px" height="225.061px" viewBox="0 0 318.3 225.061" enable-background="new 0 0 318.3 225.061" xml:space="preserve">
<g>
	<path fill-rule="evenodd" clip-rule="evenodd" fill="#FFFFFF" d="M209.987,123.224c3.731-0.522,7.017-1.229,10.329-1.4
		c9.479-0.488,14.672,4.779,14.053,14.222c-0.781,11.913-7.355,20.239-17.01,26.429c-7.207,4.621-15.28,6.872-23.685,8.215
		c-1.848,0.295-3.865,1.31-5.223,2.604c-9.36,8.918-20.49,13.857-33.269,15.078c-16.727,1.6-32.328-1.273-45.538-12.462
		c-10.04-8.505-16.425-19.547-19.836-32.024c-2.489-9.104-3.764-18.566-5.176-27.93c-0.744-4.935,1.944-7.551,6.899-7.555
		c37.357-0.02,74.713-0.019,112.069-0.002c5.168,0.002,7.158,2.242,6.833,7.508C210.29,118.257,210.147,120.608,209.987,123.224z
		 M90.839,114.959c0.867,13.887,3.388,26.924,9.593,39.063c8.2,16.042,21.042,25.528,39.055,27.974
		c25.353,3.441,45.971-7.83,56.481-31.091c4.309-9.537,6.624-19.589,7.696-29.956c0.204-1.97,0.281-3.954,0.421-5.99
		C166.125,114.959,128.711,114.959,90.839,114.959z M196.2,163.789c11.565-2.565,21.4-6.54,27.549-16.147
		c2.285-3.571,3.533-8.081,4.219-12.33c0.801-4.954-1.736-7.464-6.7-7.126c-3.719,0.253-7.399,1.288-11.047,2.176
		c-0.727,0.177-1.625,1.185-1.778,1.943C206.257,143.179,202.623,153.491,196.2,163.789z"/>
	<path fill-rule="evenodd" clip-rule="evenodd" fill="#FFFFFF" d="M147.92,191.386c14.67-0.002,29.341-0.006,44.011,0.006
		c1.073,0.001,2.401-0.256,3.157,0.265c1,0.688,2.078,2,2.133,3.094c0.045,0.905-1.189,2.119-2.15,2.747
		c-0.703,0.46-1.881,0.239-2.848,0.239c-29.88,0.009-59.761,0.008-89.641,0.005c-0.754,0-1.745,0.261-2.216-0.113
		c-1.072-0.855-2.612-2.031-2.608-3.072c0.004-1.037,1.521-2.28,2.646-3.021c0.688-0.452,1.887-0.145,2.856-0.145
		C118.147,191.387,133.034,191.388,147.92,191.386z"/>
	<path fill-rule="evenodd" clip-rule="evenodd" fill="#FFFFFF" d="M124.102,87.569c0.508-10.957,3.917-20.604,12.608-27.761
		c8.058-6.636,11.183-15.308,11.253-25.428c0.017-2.496-0.553-5.88,3.358-5.709c3.855,0.171,3.013,3.538,2.972,6.01
		c-0.196,11.771-3.814,22.029-13.236,29.725c-7.1,5.799-9.942,13.621-10.428,22.506c-0.088,1.616-0.1,3.236-0.172,4.854
		c-0.09,2.01-1.189,3.677-3.107,3.273c-1.257-0.265-2.535-1.961-3.14-3.313C123.688,90.559,124.102,88.972,124.102,87.569z"/>
	<path fill-rule="evenodd" clip-rule="evenodd" fill="#FFFFFF" d="M170.812,46.046c-0.341,10.956-3.666,20.629-12.345,27.804
		c-7.821,6.465-11.143,14.843-11.326,24.734c-0.024,1.293,0.291,2.785-0.246,3.828c-0.639,1.242-2.022,2.89-3.091,2.894
		c-1.015,0.007-2.899-1.859-2.926-2.939c-0.28-11.18,1.534-21.76,10.037-30.047c0.541-0.526,1.034-1.115,1.628-1.574
		c8.859-6.854,12.075-16.211,12.031-27.027c-0.002-0.753-0.216-1.762,0.175-2.209c0.885-1.014,2.044-2.332,3.172-2.412
		c0.878-0.064,1.902,1.528,2.801,2.443c0.172,0.175,0.084,0.624,0.087,0.947C170.816,43.674,170.812,44.859,170.812,46.046z"/>
</g>
<g>
	<path fill-rule="evenodd" clip-rule="evenodd" fill="#FFFFFF" d="M144.144,159.844c1.941-2.852,3.797-5.583,5.658-8.311
		c5.934-8.699,11.862-17.404,17.812-26.094c1.306-1.906,2.754-2.146,4.689-0.83c1.385,0.941,2.754,1.909,4.098,2.908
		c1.592,1.186,1.794,2.554,0.655,4.248c-4.409,6.554-8.806,13.116-13.247,19.648c-5.001,7.357-10.041,14.688-15.071,22.025
		c-1.547,2.257-4.346,2.711-6.316,0.821c-4.694-4.503-9.287-9.111-13.909-13.688c-1.163-1.15-2.309-2.32-3.412-3.527
		c-1.178-1.29-1.2-2.541-0.014-3.82c1.354-1.46,2.766-2.872,4.213-4.242c1.167-1.104,2.696-1.044,3.849,0.084
		c3.449,3.379,6.884,6.771,10.326,10.158C143.643,159.391,143.82,159.546,144.144,159.844z"/>
</g>
</svg>
