<?xml version="1.0" encoding="utf-8"?>
<!-- Generator: Adobe Illustrator 16.0.0, SVG Export Plug-In . SVG Version: 6.00 Build 0)  -->
<!DOCTYPE svg PUBLIC "-//W3C//DTD SVG 1.1//EN" "http://www.w3.org/Graphics/SVG/1.1/DTD/svg11.dtd">
<svg version="1.1" id="Layer_1" xmlns="http://www.w3.org/2000/svg" xmlns:xlink="http://www.w3.org/1999/xlink" x="0px" y="0px"
	 width="318.3px" height="225.061px" viewBox="0 0 318.3 225.061" enable-background="new 0 0 318.3 225.061" xml:space="preserve">
<g>
	<path fill="#FFFFFF" d="M146.391,103.745c-0.466,6.184-0.882,12.374-1.405,18.551c-0.952,11.233-1.986,22.467-2.956,33.701
		c-0.915,10.563-1.765,21.133-2.712,31.695c-0.263,2.912-0.475,5.701,2.824,7.331c-0.241,0.271-0.479,0.542-0.721,0.807
		c-3.208-2.176-7.625-3.686-9.275-6.705c-1.6-2.93-0.347-7.403-0.347-11.688c-0.703,0-1.723,0-2.738,0
		c-10.121-0.006-20.239,0.018-30.362-0.013c-7.099-0.026-11.119-4.518-10.554-11.581c1.485-18.521,2.895-37.048,4.404-55.565
		c0.918-11.243,1.974-22.477,2.952-33.718c0.733-8.411,3.752-11.229,12.262-11.428c0.577-0.01,1.153-0.081,2.177-0.166
		c0-2.016-0.013-4.015,0-6.018c0.123-17.129,13.558-30.715,30.469-30.818c16.957-0.099,30.581,13.293,30.902,30.392
		c0.039,2.032,0.005,4.063,0.005,6.436c1.488,0.064,2.796,0.134,4.105,0.176c5.758,0.209,9.512,3.529,10.082,9.278
		c0.773,7.844,1.346,15.702,2.013,23.557c0.078,0.949,0.213,1.888,0.354,3.127c3.404,0,6.68,0,9.953,0
		c6.715-0.006,13.43-0.029,20.143,0c4.117,0.02,6.056,1.504,6.431,5.524c1.083,11.516,1.983,23.051,2.942,34.583
		c1.311,15.702,2.609,31.408,3.91,47.111c0.059,0.679,0.133,1.356,0.155,2.038c0.122,3.835-1.911,6.177-5.717,6.185
		c-25.885,0.042-51.769,0.042-77.654-0.011c-3.915-0.01-5.99-2.541-5.659-6.489c1.769-21.134,3.564-42.267,5.313-63.398
		c0.519-6.285,0.949-12.576,1.372-18.863c0.31-4.635,2.386-6.66,7-6.676c7.688-0.022,15.373-0.029,23.061-0.053
		c0.182,0,0.36-0.104,0.76-0.222c0-1.249,0.089-2.566-0.019-3.879c-0.502-6.301-1.102-12.598-1.575-18.904
		c-0.416-5.498-1.08-6.051-6.92-5.022c0.311,3.425-0.935,6.917,1.368,10.3c1.446,2.123,0.392,5.169-1.673,6.786
		c-2.052,1.607-4.977,1.596-7.025-0.032c-2.084-1.662-3.039-4.592-1.584-6.786c2.254-3.393,0.83-6.9,1.401-10.509
		c-15.585,0-30.73,0-46.264,0c0.176,3.493-1.07,6.946,1.14,10.322c1.438,2.198,0.635,5.149-1.373,6.858
		c-1.987,1.686-4.915,1.794-7.026,0.261c-2.118-1.539-3.304-4.572-1.865-6.715c2.27-3.386,1.112-6.911,1.493-10.335
		c-5.306-1.458-6.563-0.591-6.973,4.377c-2.44,29.565-4.898,59.126-7.392,88.687c-0.188,2.247,0.354,3.686,2.841,3.686
		c11.572,0.014,23.148,0.004,34.988,0.004c3.759-22.18,6.768-44.405,11.927-66.22C145.699,103.71,146.045,103.729,146.391,103.745z
		 M163.484,65.044c1.536-12.135-2.604-21.434-11.594-26.455c-8.141-4.546-18.157-3.773-25.476,1.963
		c-7.267,5.691-10.866,16.052-8.466,24.492C133.066,65.044,148.203,65.044,163.484,65.044z M187.018,144.257
		c16.188-0.551,26.737-11.977,28.106-27.913c0.098-1.135-1.209-2.938-2.321-3.474c-0.994-0.477-3.087-0.074-3.853,0.736
		c-0.846,0.896-0.869,2.688-0.998,4.109c-0.099,1.086,0.475,2.267,0.264,3.307c-2.035,10.009-11.125,17.291-21.396,17.252
		c-10.32-0.042-19.593-7.602-21.508-17.616c-0.15-0.782-0.066-1.762,0.288-2.456c0.882-1.723,0.896-3.456-0.701-4.396
		c-1.244-0.734-3.469-1.305-4.401-0.682c-1.109,0.75-1.617,2.82-1.796,4.383c-0.158,1.37,0.509,2.831,0.794,4.256
		C162.126,134.861,173.662,144.286,187.018,144.257z"/>
</g>
</svg>
