<?xml version="1.0" encoding="utf-8"?>
<!-- Generator: Adobe Illustrator 16.0.0, SVG Export Plug-In . SVG Version: 6.00 Build 0)  -->
<!DOCTYPE svg PUBLIC "-//W3C//DTD SVG 1.1//EN" "http://www.w3.org/Graphics/SVG/1.1/DTD/svg11.dtd">
<svg version="1.1" id="Layer_1" xmlns="http://www.w3.org/2000/svg" xmlns:xlink="http://www.w3.org/1999/xlink" x="0px" y="0px"
	 width="318.3px" height="225.061px" viewBox="0 0 318.3 225.061" enable-background="new 0 0 318.3 225.061" xml:space="preserve">
<g>
	<path fill="#464855" d="M160.449,131.259c0.096,2.387-0.667,4.503-2.344,6.159c-1.4,1.383-2.966,2.611-4.548,3.787
		c-1.465,1.09-2.727,2.234-3.36,4.043c-0.741,2.12-2.148,2.809-4.179,2.311c-1.675-0.409-2.595-1.888-2.415-3.942
		c0.172-1.962,1.276-3.416,2.7-4.643c1.463-1.261,3.022-2.412,4.459-3.7c1.279-1.147,2.083-2.571,1.792-4.383
		c-0.313-1.94-1.408-3.091-3.379-3.508c-2.203-0.465-4.277-0.252-5.734,1.697c-0.64,0.855-1.026,1.898-1.543,2.85
		c-0.99,1.821-2.634,2.513-4.514,1.912c-1.631-0.521-2.343-1.854-2.024-3.984c0.467-3.106,2.415-5.196,5.018-6.633
		c5.178-2.862,10.428-2.518,15.513,0.231C158.872,125.068,160.259,127.712,160.449,131.259z"/>
	<path fill="#464855" d="M151.294,155.207c0.021,2.371-1.778,4.224-4.13,4.251c-2.413,0.029-4.342-1.854-4.329-4.228
		c0.014-2.296,1.928-4.206,4.235-4.224C149.362,150.988,151.274,152.891,151.294,155.207z"/>
</g>
<g>
	<path fill-rule="evenodd" clip-rule="evenodd" fill="#464855" stroke="#464855" stroke-width="5" stroke-miterlimit="10" d="
		M196.283,120.531c2.94-0.411,5.529-0.968,8.141-1.104c7.47-0.384,11.563,3.767,11.074,11.209
		c-0.615,9.389-5.796,15.951-13.405,20.829c-5.68,3.642-12.042,5.416-18.666,6.475c-1.457,0.232-3.046,1.031-4.117,2.051
		c-7.376,7.028-16.148,10.922-26.219,11.884c-13.183,1.261-25.479-1.004-35.89-9.821c-7.913-6.703-12.945-15.405-15.633-25.239
		c-1.962-7.176-2.966-14.633-4.079-22.012c-0.586-3.89,1.532-5.951,5.437-5.955c29.441-0.015,58.883-0.014,88.324-0.001
		c4.073,0.001,5.642,1.768,5.386,5.917C196.521,116.616,196.41,118.47,196.283,120.531z M102.379,114.017
		c0.684,10.945,2.67,21.22,7.561,30.787c6.462,12.644,16.583,20.119,30.78,22.047c19.982,2.712,36.23-6.171,44.513-24.504
		c3.396-7.516,5.221-15.438,6.066-23.608c0.16-1.552,0.222-3.116,0.331-4.722C161.713,114.017,132.228,114.017,102.379,114.017z
		 M185.417,152.501c9.113-2.021,16.866-5.154,21.712-12.727c1.801-2.813,2.784-6.368,3.325-9.718c0.63-3.903-1.369-5.882-5.28-5.615
		c-2.931,0.199-5.833,1.015-8.706,1.715c-0.573,0.14-1.281,0.934-1.403,1.531C193.343,136.258,190.478,144.385,185.417,152.501z"/>
	<path fill-rule="evenodd" clip-rule="evenodd" fill="#464855" stroke="#464855" stroke-width="5" stroke-miterlimit="10" d="
		M147.366,181.344c11.562-0.002,23.124-0.005,34.686,0.005c0.846,0.001,1.893-0.202,2.487,0.209
		c0.788,0.542,1.639,1.575,1.683,2.438c0.035,0.714-0.938,1.67-1.696,2.166c-0.553,0.361-1.482,0.188-2.243,0.188
		c-23.55,0.006-47.099,0.005-70.648,0.003c-0.594,0-1.375,0.206-1.747-0.09c-0.845-0.673-2.058-1.601-2.056-2.421
		c0.003-0.816,1.199-1.797,2.086-2.38c0.542-0.356,1.487-0.114,2.251-0.114C123.901,181.345,135.634,181.346,147.366,181.344z"/>
	<path fill-rule="evenodd" clip-rule="evenodd" fill="#464855" stroke="#464855" stroke-width="5" stroke-miterlimit="10" d="
		M128.594,84.55c0.4-8.636,3.087-16.239,9.937-21.879c6.35-5.229,8.813-12.064,8.869-20.04c0.014-1.967-0.436-4.634,2.647-4.499
		c3.038,0.134,2.374,2.788,2.341,4.736c-0.154,9.277-3.005,17.362-10.431,23.427c-5.596,4.571-7.836,10.735-8.219,17.737
		c-0.07,1.274-0.078,2.551-0.136,3.826c-0.071,1.584-0.938,2.898-2.449,2.58c-0.99-0.208-1.998-1.545-2.474-2.611
		C128.268,86.906,128.594,85.655,128.594,84.55z"/>
	<path fill-rule="evenodd" clip-rule="evenodd" fill="#464855" stroke="#464855" stroke-width="5" stroke-miterlimit="10" d="
		M165.408,51.824c-0.27,8.635-2.89,16.258-9.729,21.913c-6.164,5.096-8.782,11.698-8.926,19.494
		c-0.02,1.019,0.229,2.195-0.194,3.017c-0.503,0.979-1.594,2.277-2.436,2.281c-0.8,0.005-2.285-1.465-2.306-2.316
		c-0.221-8.812,1.209-17.149,7.91-23.681c0.426-0.415,0.815-0.879,1.283-1.24c6.982-5.402,9.517-12.776,9.481-21.301
		c-0.001-0.594-0.169-1.389,0.139-1.741c0.697-0.799,1.61-1.838,2.5-1.901c0.691-0.051,1.499,1.205,2.208,1.926
		c0.135,0.138,0.066,0.492,0.068,0.747C165.411,49.954,165.408,50.889,165.408,51.824z"/>
</g>
</svg>
