<?xml version="1.0" encoding="utf-8"?>
<!-- Generator: Adobe Illustrator 16.0.0, SVG Export Plug-In . SVG Version: 6.00 Build 0)  -->
<!DOCTYPE svg PUBLIC "-//W3C//DTD SVG 1.1//EN" "http://www.w3.org/Graphics/SVG/1.1/DTD/svg11.dtd">
<svg version="1.1" id="Layer_1" xmlns="http://www.w3.org/2000/svg" xmlns:xlink="http://www.w3.org/1999/xlink" x="0px" y="0px"
	 width="318.3px" height="225.062px" viewBox="0 0 318.3 225.062" enable-background="new 0 0 318.3 225.062" xml:space="preserve">
<g>
	<path fill-rule="evenodd" clip-rule="evenodd" fill="#FFFFFF" d="M203.398,25.562c7.973,0.007,15.95-0.064,23.923,0.023
		c10.946,0.13,19.735,7.144,20.077,18.011c0.581,18.297,0.301,36.65-0.508,54.938c-0.395,8.931-4.973,16.719-11.357,23.118
		c-24.496,24.562-48.993,49.112-73.588,73.566c-9.028,8.974-20.674,8.985-29.705,0.04c-18.13-17.959-36.168-35.998-54.13-54.125
		c-9.414-9.496-9.481-20.601-0.095-30.047c24.444-24.607,48.943-49.162,73.594-73.559c7.943-7.865,17.757-11.928,29.07-11.959
		C188.248,25.542,195.82,25.562,203.398,25.562z M235.222,69.636c0-7.57,0.05-15.136-0.012-22.696
		c-0.069-7.111-2.62-9.773-9.689-9.816c-14.33-0.08-28.669-0.161-43.004,0.031c-8.412,0.116-16.254,2.654-22.301,8.639
		c-24.611,24.376-49.06,48.916-73.508,73.455c-4.908,4.927-4.883,8.322,0.034,13.27c17.688,17.787,35.429,35.523,53.213,53.221
		c5.195,5.18,8.642,5.211,13.734,0.131c24.239-24.186,48.467-48.383,72.617-72.668c6.003-6.035,8.977-13.47,8.923-22.065
		C235.183,83.966,235.222,76.802,235.222,69.636z"/>
	<path fill-rule="evenodd" clip-rule="evenodd" fill="#FFFFFF" d="M197.609,99.909c-13.48,0.058-24.416-10.592-24.612-23.95
		c-0.192-13.5,10.885-24.765,24.471-24.885c13.538-0.108,24.461,10.962,24.419,24.749C221.845,89.397,211.306,99.855,197.609,99.909
		z M197.528,62.386c-7.383,0.012-13.23,5.881-13.203,13.251c0.022,7.254,6.08,13.338,13.265,13.319
		c7.039-0.024,13.408-6.402,13.386-13.382C210.944,68.394,204.806,62.365,197.528,62.386z"/>
</g>
</svg>
